<svg version="1.1" id="Layer_1" xmlns="http://www.w3.org/2000/svg" xmlns:xlink="http://www.w3.org/1999/xlink" x="0px" y="0px"
	 width="100%" viewBox="0 0 200 196" enable-background="new 0 0 200 196" xml:space="preserve">
<path fill="#000000" opacity="1.000000" stroke="none" 
	d="
M118.000000,197.000000 
	C78.691193,197.000000 39.882389,197.000000 1.036793,197.000000 
	C1.036793,131.732483 1.036793,66.464935 1.036793,1.098692 
	C67.558632,1.098692 134.117462,1.098692 200.838135,1.098692 
	C200.838135,66.333008 200.838135,131.666473 200.838135,197.000000 
	C173.465225,197.000000 145.982605,197.000000 118.000000,197.000000 
M146.619171,100.541969 
	C146.672958,100.073547 146.726761,99.605118 147.593842,98.771988 
	C148.709274,91.672791 149.851776,84.577721 150.932693,77.473274 
	C152.060394,70.061409 147.156525,64.438179 145.053467,57.331650 
	C145.042633,56.900158 145.031784,56.468670 145.271988,55.823826 
	C145.440475,55.487091 145.345413,55.228081 144.832016,54.370537 
	C141.399857,48.047241 135.775391,44.738613 128.703781,42.398495 
	C127.825081,41.842667 126.946381,41.286835 125.719627,40.155613 
	C122.473587,38.570381 119.227539,36.985153 115.342339,34.982327 
	C110.230019,33.737644 105.117706,32.492962 99.910912,31.118835 
	C99.910912,31.118835 99.770859,31.050625 99.680031,30.783659 
	C99.404022,30.611153 99.181953,30.684090 98.111320,30.939734 
	C95.391144,31.019365 92.670967,31.098997 89.340248,30.824379 
	C88.238510,30.422138 87.136780,30.019897 85.517570,29.319992 
	C84.006157,30.200602 82.494743,31.081211 80.240585,31.985523 
	C79.496979,31.993313 78.753372,32.001099 77.379799,32.096317 
	C76.920097,32.739334 76.460403,33.382351 75.329674,34.028122 
	C74.882980,34.050922 74.436295,34.073723 73.718544,33.826324 
	C73.433289,34.184803 73.148041,34.543282 72.347565,35.185825 
	C71.618088,35.836460 70.888611,36.487095 69.525276,37.402412 
	C68.339752,40.269611 67.154236,43.136810 65.933334,46.641987 
	C65.912453,47.067608 65.891579,47.493225 65.431793,47.966583 
	C65.431793,47.966583 64.992889,48.014370 64.535553,48.347275 
	C64.023605,48.898102 63.511665,49.448929 62.597935,50.246521 
	C62.345711,50.448086 62.164921,50.700760 61.761673,51.659290 
	C60.850586,63.236298 59.855503,74.807854 59.103298,86.395172 
	C58.962437,88.565002 59.793564,90.797943 59.980984,93.727615 
	C59.316818,93.835182 58.652657,93.942741 57.471481,93.607651 
	C56.028332,94.239624 53.340832,94.862816 53.336300,95.504944 
	C53.295181,101.334450 53.722446,107.167259 53.946960,113.759521 
	C55.300179,115.793076 56.653397,117.826637 58.479038,120.000946 
	C58.479038,120.000946 58.965630,119.922066 58.976860,120.736069 
	C59.121250,121.718452 59.204094,122.714531 59.419270,123.681160 
	C62.599693,137.968369 71.765938,148.270248 82.858734,156.712677 
	C92.279968,163.882950 103.125938,165.412003 114.372192,160.377823 
	C123.704704,156.200317 131.235306,149.546402 137.275650,141.645615 
	C140.640091,137.244888 141.853989,131.200027 144.672134,126.181625 
	C148.848923,127.555313 149.050568,123.576683 149.769363,121.661125 
	C151.399689,117.316338 152.141998,112.638336 153.707260,107.524567 
	C153.867523,104.192253 154.549469,100.493126 147.887115,101.142776 
	C147.462616,101.178520 147.038132,101.214256 146.619171,100.541969 
z"/>
<path fill="#18110C" opacity="1.000000" stroke="none" 
	d="
M144.037048,125.896111 
	C141.853989,131.200027 140.640091,137.244888 137.275650,141.645615 
	C131.235306,149.546402 123.704704,156.200317 114.372192,160.377823 
	C103.125938,165.412003 92.279968,163.882950 82.858734,156.712677 
	C71.765938,148.270248 62.599693,137.968369 59.419270,123.681160 
	C59.204094,122.714531 59.121250,121.718452 58.980145,119.947372 
	C59.029583,118.143837 59.075741,117.128998 59.455444,116.077538 
	C60.568764,117.252815 61.348534,118.464706 62.158287,119.932228 
	C62.396717,120.451035 62.605160,120.714203 63.010014,121.257355 
	C63.345669,121.968102 63.484917,122.398880 63.315109,123.008331 
	C63.197605,124.475494 62.962254,126.081322 63.647346,127.002945 
	C69.866844,135.369919 76.194824,143.658020 82.593468,151.889603 
	C90.586533,162.172348 111.982933,162.226212 120.155960,152.399323 
	C123.896400,147.901978 128.600189,144.213028 132.794434,140.083649 
	C136.021606,136.906387 139.881561,134.088303 140.041473,128.523468 
	C141.419449,124.179214 142.698120,120.185310 144.366425,114.974342 
	C144.802109,117.226173 144.981842,118.155136 145.164978,119.483810 
	C144.791260,121.887711 144.414154,123.891907 144.037048,125.896111 
z"/>
<path fill="#281D13" opacity="1.000000" stroke="none" 
	d="
M145.071655,57.978180 
	C147.156525,64.438179 152.060394,70.061409 150.932693,77.473274 
	C149.851776,84.577721 148.709274,91.672791 147.047852,98.847244 
	C146.400696,98.710327 146.318695,98.490982 146.448914,97.811844 
	C146.715027,94.224297 147.039185,91.066193 146.752823,87.964462 
	C146.614258,86.463692 145.329437,85.068741 144.502655,83.208153 
	C143.492096,78.480019 142.542480,74.169609 141.430054,69.542343 
	C139.126694,66.985016 136.986145,64.744553 134.585693,62.334930 
	C132.868607,62.064083 131.411407,61.962399 130.035950,61.573563 
	C130.743530,60.526772 131.369354,59.767128 132.300110,59.142250 
	C134.065079,59.181553 135.525131,59.086086 137.335693,58.976665 
	C138.623001,57.651901 139.559814,56.341095 140.309982,55.291424 
	C141.611221,56.025639 143.341431,57.001911 145.071655,57.978180 
z"/>
<path fill="#19120D" opacity="1.000000" stroke="none" 
	d="
M131.995178,59.007484 
	C131.369354,59.767128 130.743530,60.526772 129.994904,61.667923 
	C129.872101,62.049431 130.037537,62.171799 129.644775,62.113777 
	C128.193817,62.028236 127.135605,62.000725 125.897102,61.624531 
	C124.146431,61.234837 122.576057,61.193821 120.670120,61.078247 
	C119.881226,61.051834 119.427879,61.099976 118.553970,61.059269 
	C116.439682,60.629295 114.751801,60.033966 113.051140,59.994942 
	C108.041138,59.879982 103.026077,59.985489 97.759888,59.700939 
	C91.029305,58.696808 84.588623,55.698536 77.720650,59.073517 
	C76.396431,59.443924 75.397240,59.826309 74.090508,60.052330 
	C71.186928,58.700787 70.271896,56.705467 71.351357,53.976311 
	C75.310097,54.824371 78.870430,55.646557 82.725426,56.536785 
	C78.233864,53.017525 74.367653,49.809074 70.283615,46.907200 
	C69.185699,46.127087 67.425102,46.279610 65.968712,46.004009 
	C67.154236,43.136810 68.339752,40.269611 69.833527,37.570683 
	C70.144508,38.142860 70.147240,38.546772 69.895096,39.177620 
	C69.876587,40.592110 69.813873,41.957184 70.396698,42.939098 
	C75.027290,50.740532 83.023552,52.888859 91.263702,55.198662 
	C92.328049,55.592411 93.154945,55.771194 94.276871,56.208977 
	C96.702576,56.655720 98.833252,56.843460 101.300499,57.276012 
	C109.749733,57.663113 117.862396,57.805405 126.256607,58.199635 
	C128.047806,58.613647 129.557449,58.775726 131.299362,58.951900 
	C131.531631,58.965996 131.995178,59.007484 131.995178,59.007484 
z"/>
<path fill="#241A11" opacity="1.000000" stroke="none" 
	d="
M70.952950,53.950432 
	C70.271896,56.705467 71.186928,58.700787 73.999969,60.250977 
	C74.216965,60.605991 73.993103,60.980961 73.704895,61.024036 
	C72.911621,61.637638 72.406563,62.208168 71.603706,62.952553 
	C69.872681,65.416412 68.439468,67.706406 66.628143,70.005493 
	C65.152489,71.233269 63.350082,72.316582 63.085316,73.695206 
	C62.173851,78.441185 61.799809,83.290382 61.149078,88.460457 
	C60.776814,90.214363 60.476479,91.608055 60.176144,93.001755 
	C59.793564,90.797943 58.962437,88.565002 59.103298,86.395172 
	C59.855503,74.807854 60.850586,63.236298 62.099621,51.199001 
	C62.677197,50.532143 62.864582,50.285820 62.999725,49.999756 
	C63.511665,49.448929 64.023605,48.898102 64.767227,48.567612 
	C64.823837,51.653584 66.148651,53.098824 69.043961,53.263584 
	C69.045227,53.469181 69.016251,53.879360 69.107117,54.036110 
	C69.494576,54.113266 69.791168,54.033669 70.304047,53.948708 
	C70.520317,53.943348 70.952950,53.950432 70.952950,53.950432 
z"/>
<path fill="#39322C" opacity="1.000000" stroke="none" 
	d="
M93.981834,55.949982 
	C93.154945,55.771194 92.328049,55.592411 91.094856,54.906166 
	C83.842361,49.249363 76.996170,44.100021 70.149979,38.950680 
	C70.147240,38.546772 70.144508,38.142860 70.150452,37.438343 
	C70.888611,36.487095 71.618088,35.836460 72.835419,34.974144 
	C73.615303,34.610416 73.837410,34.388439 73.989601,34.096527 
	C74.436295,34.073723 74.882980,34.050922 75.702888,34.340919 
	C76.722137,35.436977 77.368172,36.220234 78.005974,37.002327 
	C77.997734,37.001160 78.001221,36.984833 78.052185,37.321865 
	C80.591713,41.756599 80.891769,41.900715 83.224426,39.810669 
	C84.301559,38.746639 85.142029,37.876926 86.226997,37.279205 
	C88.406433,42.191540 90.352226,46.827404 92.269981,51.474838 
	C92.878998,52.950706 93.413330,54.457397 93.981834,55.949982 
z"/>
<path fill="#C78C56" opacity="1.000000" stroke="none" 
	d="
M145.161560,119.084106 
	C144.981842,118.155136 144.802109,117.226173 144.366425,114.974342 
	C142.698120,120.185310 141.419449,124.179214 139.817200,128.576080 
	C139.493607,128.979034 139.051285,129.108032 139.013641,128.770752 
	C138.680252,127.618378 138.384521,126.803284 138.116913,125.667618 
	C138.194138,124.920753 138.243210,124.494453 138.519043,124.000137 
	C138.872787,123.465080 138.999756,122.998047 139.126740,122.531021 
	C138.727936,122.923218 138.329117,123.315414 137.572174,123.750244 
	C135.840988,124.154396 134.467926,124.515923 133.079102,124.543716 
	C133.046249,123.319443 133.029190,122.428902 133.361893,121.413956 
	C134.830734,120.160568 135.949799,119.031586 137.293030,117.666389 
	C139.675354,114.285172 141.833511,111.140160 143.994705,107.997269 
	C143.997757,107.999390 143.984818,107.993431 143.984100,108.366722 
	C144.492493,109.719109 145.001572,110.698212 145.510666,111.677307 
	C146.141479,110.752861 146.988434,109.906471 147.356537,108.887154 
	C148.048004,106.972343 148.462769,104.957603 149.160767,102.687943 
	C149.273483,101.948059 149.218048,101.504639 149.162613,101.061226 
	C154.549469,100.493126 153.867523,104.192253 153.098068,107.814140 
	C151.309631,109.867836 150.129242,111.631210 148.951431,113.396294 
	C147.686874,115.291382 146.424744,117.188095 145.161560,119.084106 
z"/>
<path fill="#322C26" opacity="1.000000" stroke="none" 
	d="
M100.005386,31.248281 
	C105.117706,32.492962 110.230019,33.737644 115.678955,35.490044 
	C116.342461,36.982460 116.669350,37.967155 117.118462,39.259949 
	C116.187691,41.586086 115.134705,43.604134 114.081718,45.622185 
	C112.731308,44.444019 111.319809,43.328125 110.042679,42.075256 
	C106.992455,39.082981 104.005577,36.026127 100.996712,32.997520 
	C101.000305,32.999695 101.004662,33.006889 100.876770,32.809532 
	C100.546669,32.365398 100.300362,32.175957 100.009857,31.844950 
	C100.009758,31.646053 100.005386,31.248281 100.005386,31.248281 
z"/>
<path fill="#282119" opacity="1.000000" stroke="none" 
	d="
M94.276871,56.208977 
	C93.413330,54.457397 92.878998,52.950706 92.269981,51.474838 
	C90.352226,46.827404 88.406433,42.191540 86.176933,36.924164 
	C84.249367,34.852032 82.616348,33.406929 80.983337,31.961823 
	C82.494743,31.081211 84.006157,30.200602 85.803185,29.869961 
	C91.057625,38.947712 96.026459,47.475494 100.991577,56.260361 
	C100.979881,56.688702 100.971901,56.859951 100.963921,57.031204 
	C98.833252,56.843460 96.702576,56.655720 94.276871,56.208977 
z"/>
<path fill="#F2BF96" opacity="1.000000" stroke="none" 
	d="
M59.121895,116.114151 
	C59.075741,117.128998 59.029583,118.143837 58.974529,119.540375 
	C58.965630,119.922066 58.479038,120.000946 58.184662,119.595085 
	C56.597744,117.125854 55.305199,115.062477 54.012650,112.999107 
	C53.722446,107.167259 53.295181,101.334450 53.336300,95.504944 
	C53.340832,94.862816 56.028332,94.239624 57.854767,94.144897 
	C58.862022,95.797546 59.485989,96.912964 60.018066,98.295532 
	C59.666683,99.054695 59.407188,99.546692 58.918186,99.891068 
	C57.174026,100.784660 55.659374,101.825874 54.144722,102.867081 
	C55.365276,103.243431 56.585831,103.619774 57.855946,104.429947 
	C58.311947,107.891495 58.718391,110.919205 59.110771,114.308258 
	C59.105099,115.151115 59.113495,115.632629 59.121895,116.114151 
z"/>
<path fill="#3C3732" opacity="1.000000" stroke="none" 
	d="
M100.995285,56.003273 
	C96.026459,47.475494 91.057625,38.947712 86.061920,30.018795 
	C87.136780,30.019897 88.238510,30.422138 89.715103,31.322870 
	C91.391357,33.882626 92.692749,35.943890 94.008026,38.375534 
	C96.659805,42.854385 99.255722,46.990677 101.953194,51.059643 
	C103.311470,53.108521 106.064537,55.266003 100.995285,56.003273 
z"/>
<path fill="#312A23" opacity="1.000000" stroke="none" 
	d="
M116.996246,38.951855 
	C116.669350,37.967155 116.342461,36.982460 115.998535,35.698841 
	C119.227539,36.985153 122.473587,38.570381 125.915436,40.806122 
	C127.080261,42.299931 128.049271,43.143227 129.012177,43.993355 
	C129.006088,44.000183 129.007111,43.988560 129.141006,44.199409 
	C129.544067,44.602654 129.813217,44.795044 130.271820,45.105087 
	C130.698669,45.410221 130.885986,45.638767 131.025238,46.297367 
	C132.964127,50.153637 132.431046,55.050915 136.997559,57.328896 
	C136.994263,58.104424 136.989731,58.547523 136.985184,58.990620 
	C135.525131,59.086086 134.065079,59.181553 132.300110,59.142250 
	C131.995178,59.007484 131.531631,58.965996 131.275330,58.548698 
	C130.252136,50.313400 126.684097,44.203800 119.983719,40.005615 
	C119.998352,39.997715 120.001442,40.026512 119.873367,39.814835 
	C119.536499,39.338829 119.278961,39.136543 118.990067,38.996082 
	C119.007446,38.995861 119.003212,39.030369 118.911629,38.895458 
	C118.508934,38.555744 118.250397,38.624962 117.782333,38.967232 
	C117.345573,38.961464 117.170906,38.956657 116.996246,38.951855 
z"/>
<path fill="#282119" opacity="1.000000" stroke="none" 
	d="
M131.023209,45.908379 
	C130.885986,45.638767 130.698669,45.410221 130.125824,44.903919 
	C129.573273,44.328510 129.312180,44.129665 129.007111,43.988560 
	C129.007111,43.988560 129.006088,44.000183 129.021133,43.724274 
	C129.048737,43.269260 129.061310,43.090149 129.073883,42.911034 
	C135.775391,44.738613 141.399857,48.047241 144.916977,54.956066 
	C145.001938,55.541595 145.020935,56.037178 145.020935,56.037178 
	C145.031784,56.468670 145.042633,56.900158 145.062561,57.654915 
	C143.341431,57.001911 141.611221,56.025639 140.309982,55.291424 
	C139.559814,56.341095 138.623001,57.651901 137.335693,58.976665 
	C136.989731,58.547523 136.994263,58.104424 136.983948,56.950165 
	C134.987137,52.795464 133.005173,49.351921 131.023209,45.908379 
z"/>
<path fill="#312A23" opacity="1.000000" stroke="none" 
	d="
M93.994141,38.005150 
	C92.692749,35.943890 91.391357,33.882626 90.020370,31.499996 
	C92.670967,31.098997 95.391144,31.019365 98.752144,30.976891 
	C99.392967,31.014048 99.770859,31.050625 99.770859,31.050625 
	C99.770859,31.050625 99.910912,31.118835 99.958145,31.183559 
	C100.005386,31.248281 100.009758,31.646053 99.904266,31.999701 
	C100.200729,32.571198 100.602699,32.789043 101.004662,33.006889 
	C101.004662,33.006889 101.000305,32.999695 101.004898,33.365562 
	C102.340324,36.820992 103.671158,39.910549 104.636330,42.988174 
	C102.760239,42.064972 101.308434,41.030907 99.724060,40.274498 
	C97.874512,39.391483 95.909225,38.750912 93.994141,38.005150 
z"/>
<path fill="#EDB586" opacity="1.000000" stroke="none" 
	d="
M145.164963,119.483803 
	C146.424744,117.188095 147.686874,115.291382 148.951431,113.396294 
	C150.129242,111.631210 151.309631,109.867836 152.867126,108.099762 
	C152.141998,112.638336 151.399689,117.316338 149.769363,121.661125 
	C149.050568,123.576683 148.848923,127.555313 144.354584,126.038864 
	C144.414154,123.891907 144.791260,121.887711 145.164963,119.483803 
z"/>
<path fill="#312A23" opacity="1.000000" stroke="none" 
	d="
M69.016251,53.879360 
	C69.016251,53.879360 69.045227,53.469181 68.987251,52.920147 
	C67.909752,50.887024 66.890221,49.402935 65.870697,47.918846 
	C65.891579,47.493225 65.912453,47.067608 65.951019,46.322998 
	C67.425102,46.279610 69.185699,46.127087 70.283615,46.907200 
	C74.367653,49.809074 78.233864,53.017525 82.725426,56.536785 
	C78.870430,55.646557 75.310097,54.824371 71.351357,53.976311 
	C70.952950,53.950432 70.520317,53.943348 70.035553,53.929848 
	C69.372612,53.904018 69.194435,53.891689 69.016251,53.879360 
z"/>
<path fill="#3C3732" opacity="1.000000" stroke="none" 
	d="
M80.611961,31.973675 
	C82.616348,33.406929 84.249367,34.852032 85.932442,36.652176 
	C85.142029,37.876926 84.301559,38.746639 82.938553,39.648491 
	C80.944420,38.782028 79.472824,37.883430 78.001221,36.984833 
	C78.001221,36.984833 77.997734,37.001160 78.012573,36.585770 
	C78.021523,34.783215 78.015648,33.396053 78.009766,32.008888 
	C78.753372,32.001099 79.496979,31.993313 80.611961,31.973675 
z"/>
<path fill="#936941" opacity="1.000000" stroke="none" 
	d="
M60.109959,98.028374 
	C59.485989,96.912964 58.862022,95.797546 58.113274,94.366226 
	C58.652657,93.942741 59.316818,93.835182 60.078564,93.364685 
	C60.476479,91.608055 60.776814,90.214363 61.362270,88.317146 
	C62.074966,87.528435 62.502541,87.243240 62.989429,87.173470 
	C63.048744,87.388885 63.026657,87.834717 63.006721,88.284546 
	C63.048630,91.390457 63.110474,94.046532 62.896576,96.910408 
	C62.293495,97.441170 61.966160,97.764130 61.384071,98.073166 
	C60.789528,98.048958 60.449745,98.038666 60.109959,98.028374 
z"/>
<path fill="#C78C56" opacity="1.000000" stroke="none" 
	d="
M146.255859,98.264473 
	C146.318695,98.490982 146.400696,98.710327 146.641205,99.029602 
	C146.726761,99.605118 146.672958,100.073547 146.433411,101.002678 
	C146.247650,101.463387 146.042084,101.838127 145.837402,101.992699 
	C145.083405,104.095985 144.534103,106.044708 143.984818,107.993431 
	C143.984818,107.993431 143.997757,107.999390 143.971924,107.597099 
	C143.918655,106.128105 143.891205,105.061401 143.932953,103.623871 
	C143.969223,102.500916 143.936310,101.748779 143.990479,100.668098 
	C144.214722,99.674194 144.351868,99.008842 144.775009,98.262695 
	C145.457214,98.172035 145.853394,98.162170 146.243683,98.180763 
	C146.237778,98.209221 146.255859,98.264473 146.255859,98.264473 
z"/>
<path fill="#F7C194" opacity="1.000000" stroke="none" 
	d="
M53.979805,113.379318 
	C55.305199,115.062477 56.597744,117.125854 57.948452,119.524704 
	C56.653397,117.826637 55.300179,115.793076 53.979805,113.379318 
z"/>
<path fill="#19120D" opacity="1.000000" stroke="none" 
	d="
M65.651245,47.942715 
	C66.890221,49.402935 67.909752,50.887024 68.985977,52.714550 
	C66.148651,53.098824 64.823837,51.653584 64.995895,48.401161 
	C64.992889,48.014370 65.431793,47.966583 65.651245,47.942715 
z"/>
<path fill="#282119" opacity="1.000000" stroke="none" 
	d="
M77.694786,32.052605 
	C78.015648,33.396053 78.021523,34.783215 78.020813,36.586937 
	C77.368172,36.220234 76.722137,35.436977 76.038406,34.339546 
	C76.460403,33.382351 76.920097,32.739334 77.694786,32.052605 
z"/>
<path fill="#39322C" opacity="1.000000" stroke="none" 
	d="
M128.888824,42.654762 
	C129.061310,43.090149 129.048737,43.269260 129.027222,43.717445 
	C128.049271,43.143227 127.080261,42.299931 126.089470,41.093819 
	C126.946381,41.286835 127.825081,41.842667 128.888824,42.654762 
z"/>
<path fill="#281D13" opacity="1.000000" stroke="none" 
	d="
M146.042084,101.838127 
	C146.042084,101.838127 146.247650,101.463387 146.430634,101.356689 
	C147.038132,101.214256 147.462616,101.178520 148.524872,101.102005 
	C149.218048,101.504639 149.273483,101.948059 148.665527,102.507576 
	C147.348770,102.361832 146.695435,102.099983 146.042084,101.838127 
z"/>
<path fill="#282119" opacity="1.000000" stroke="none" 
	d="
M73.854073,33.961426 
	C73.837410,34.388439 73.615303,34.610416 73.093033,34.832108 
	C73.148041,34.543282 73.433289,34.184803 73.854073,33.961426 
z"/>
<path fill="#322C26" opacity="1.000000" stroke="none" 
	d="
M99.725449,30.917141 
	C99.770859,31.050625 99.392967,31.014048 99.203392,31.008259 
	C99.181953,30.684090 99.404022,30.611153 99.725449,30.917141 
z"/>
<path fill="#19120D" opacity="1.000000" stroke="none" 
	d="
M62.798828,50.123138 
	C62.864582,50.285820 62.677197,50.532143 62.246567,50.871628 
	C62.164921,50.700760 62.345711,50.448086 62.798828,50.123138 
z"/>
<path fill="#281D13" opacity="1.000000" stroke="none" 
	d="
M145.146454,55.930504 
	C145.020935,56.037178 145.001938,55.541595 144.994354,55.294197 
	C145.345413,55.228081 145.440475,55.487091 145.146454,55.930504 
z"/>
<path fill="#282119" opacity="1.000000" stroke="none" 
	d="
M139.051285,129.108032 
	C139.051285,129.108032 139.493607,128.979034 139.717865,128.926422 
	C139.881561,134.088303 136.021606,136.906387 132.794434,140.083649 
	C128.600189,144.213028 123.896400,147.901978 120.155960,152.399323 
	C111.982933,162.226212 90.586533,162.172348 82.593468,151.889603 
	C76.194824,143.658020 69.866844,135.369919 63.647346,127.002945 
	C62.962254,126.081322 63.197605,124.475494 63.545597,123.228470 
	C68.103104,129.247040 70.632095,129.893112 76.941093,126.620995 
	C78.264389,125.934669 79.657990,125.383911 81.461678,124.869110 
	C84.625458,124.904999 87.346756,124.842476 90.387527,124.830841 
	C91.127609,124.808960 91.548203,124.736191 92.295990,124.763527 
	C93.077835,124.877441 93.532509,124.891258 94.336624,125.085945 
	C95.464561,125.370071 96.243042,125.473312 97.330482,125.766533 
	C100.747498,126.037636 103.855568,126.118759 107.327782,126.257095 
	C108.427322,126.332710 109.162704,126.351120 110.182602,126.557045 
	C112.016403,126.644508 113.565697,126.544472 115.417267,126.461342 
	C116.119751,126.530403 116.519958,126.582550 117.113251,126.770020 
	C117.306343,126.905342 117.776924,126.927376 117.776924,126.927376 
	C117.776924,126.927376 118.182152,126.687119 118.498734,126.705719 
	C119.209076,126.865562 119.602844,127.006813 119.981125,127.498123 
	C119.528755,128.620682 119.091881,129.393173 118.266510,130.169800 
	C116.574036,130.174103 115.270042,130.174271 113.512329,130.119186 
	C109.339287,130.359253 105.619980,130.654556 101.586288,130.956696 
	C100.853348,130.984467 100.434776,131.005402 99.699059,130.928864 
	C94.230865,129.885666 89.079811,128.939926 83.628891,127.858124 
	C79.918015,126.653954 80.168678,129.015503 80.120987,131.099701 
	C80.096291,131.078659 80.160736,131.071228 80.010681,131.138489 
	C79.574821,131.447983 79.583099,131.711105 79.874115,132.423599 
	C79.432999,137.244263 80.570923,141.046356 84.201660,144.275848 
	C85.617874,145.592026 86.879433,146.600739 88.330154,147.845459 
	C91.020309,149.452209 93.520058,150.898544 96.367157,148.183487 
	C97.020004,148.168304 97.393387,148.175262 97.869003,148.492767 
	C98.699486,149.012360 99.427750,149.221390 100.452728,149.512787 
	C101.158310,149.596954 101.567154,149.598785 102.379684,149.737228 
	C104.204247,149.894272 105.625145,149.914703 107.347519,150.109863 
	C110.476639,149.376404 113.304276,148.468201 116.405708,147.418243 
	C117.127541,146.857880 117.575577,146.439240 118.280502,145.955902 
	C118.643738,145.587601 118.750084,145.284027 119.029770,144.684952 
	C120.529411,142.590256 121.855705,140.791061 123.526794,138.857758 
	C124.958397,136.133636 126.045204,133.543625 127.478027,131.062622 
	C130.234161,131.494629 132.644302,131.817612 135.390030,132.099762 
	C136.834183,131.075287 137.942734,130.091660 139.051285,129.108032 
z"/>
<path fill="#EDB586" opacity="1.000000" stroke="none" 
	d="
M81.019196,124.770691 
	C79.657990,125.383911 78.264389,125.934669 76.941093,126.620995 
	C70.632095,129.893112 68.103104,129.247040 63.854649,123.049805 
	C63.484917,122.398880 63.345669,121.968102 63.099174,121.029572 
	C62.991920,120.521820 63.049438,120.035637 63.257416,119.774040 
	C63.596561,117.393913 64.046196,115.232025 63.765388,113.169586 
	C63.507217,111.273392 62.462757,109.484261 61.740723,107.436081 
	C61.689178,106.940308 61.666397,106.656021 62.239944,106.307701 
	C63.224277,106.189064 63.617081,106.134064 64.193008,106.364349 
	C66.582275,109.449364 68.788406,112.249100 71.293610,115.267639 
	C73.090286,115.654068 74.587875,115.821693 76.322533,115.996216 
	C76.559593,116.003120 77.012253,116.145538 77.007828,116.361351 
	C77.003395,116.577164 76.992134,117.008728 76.673668,117.145187 
	C75.092056,117.767090 73.828911,118.252533 72.565765,118.737968 
	C72.532707,119.094620 72.499649,119.451263 72.466591,119.807915 
	C74.993423,120.551018 77.520256,121.294113 80.062347,122.332298 
	C80.391472,123.341820 80.705330,124.056252 81.019196,124.770691 
z"/>
<path fill="#BE8654" opacity="1.000000" stroke="none" 
	d="
M61.764694,107.647964 
	C62.462757,109.484261 63.507217,111.273392 63.765388,113.169586 
	C64.046196,115.232025 63.596561,117.393913 63.023773,119.692497 
	C62.582150,119.872551 62.128307,119.676590 62.128304,119.676590 
	C61.348534,118.464706 60.568764,117.252815 59.455444,116.077538 
	C59.113495,115.632629 59.105099,115.151115 59.410538,114.332336 
	C60.328197,113.336578 60.932022,112.678062 61.467049,111.640625 
	C61.262035,110.506721 61.125824,109.751732 61.062366,108.803741 
	C61.344978,108.289818 61.554836,107.968895 61.764694,107.647964 
z"/>
<path fill="#282119" opacity="1.000000" stroke="none" 
	d="
M62.158287,119.932228 
	C62.128307,119.676590 62.582150,119.872551 62.815796,119.954094 
	C63.049438,120.035637 62.991920,120.521820 62.902763,120.749603 
	C62.605160,120.714203 62.396717,120.451035 62.158287,119.932228 
z"/>
<path fill="#DC9F66" opacity="1.000000" stroke="none" 
	d="
M141.592865,69.859200 
	C142.542480,74.169609 143.492096,78.480019 144.345474,83.621979 
	C144.472458,87.544273 144.695663,90.635010 144.646942,93.687057 
	C144.014969,93.574615 143.654907,93.500877 143.102173,93.289413 
	C142.610336,93.013885 142.300552,92.983101 141.604248,92.998611 
	C140.470200,92.913727 139.712021,92.889565 138.945114,92.546211 
	C138.362762,91.496758 137.789169,90.766495 137.183502,89.680023 
	C137.095840,88.611984 137.040253,87.900162 137.050690,86.798691 
	C137.038895,85.624641 136.961105,84.840233 137.190948,83.815987 
	C138.000854,81.193886 138.356049,78.767891 139.047485,76.441856 
	C139.715668,74.194054 140.730377,72.049248 141.592865,69.859200 
z"/>
<path fill="#F2BA8B" opacity="1.000000" stroke="none" 
	d="
M141.430054,69.542343 
	C140.730377,72.049248 139.715668,74.194054 139.047485,76.441856 
	C138.356049,78.767891 138.000854,81.193886 136.918091,83.676575 
	C135.542603,82.871574 134.747589,81.966148 133.951477,80.719177 
	C133.962357,79.922226 133.974350,79.466812 133.989670,78.571434 
	C134.277206,72.922340 134.561401,67.713211 134.845581,62.504089 
	C136.986145,64.744553 139.126694,66.985016 141.430054,69.542343 
z"/>
<path fill="#F6C49C" opacity="1.000000" stroke="none" 
	d="
M134.585693,62.334930 
	C134.561401,67.713211 134.277206,72.922340 133.623383,78.549103 
	C132.166733,76.977417 131.079697,74.988091 129.995148,72.571312 
	C130.010925,68.819839 130.024231,65.495819 130.037537,62.171799 
	C130.037537,62.171799 129.872101,62.049431 129.913147,61.955074 
	C131.411407,61.962399 132.868607,62.064083 134.585693,62.334930 
z"/>
<path fill="#8C603A" opacity="1.000000" stroke="none" 
	d="
M144.918884,93.725754 
	C144.695663,90.635010 144.472458,87.544273 144.406418,84.039703 
	C145.329437,85.068741 146.614258,86.463692 146.752823,87.964462 
	C147.039185,91.066193 146.715027,94.224297 146.448914,97.811844 
	C146.255859,98.264473 146.237778,98.209221 146.143661,97.799637 
	C145.672653,96.168617 145.295776,94.947182 144.918884,93.725754 
z"/>
<path fill="#FEE1C7" opacity="1.000000" stroke="none" 
	d="
M98.012993,60.004704 
	C103.026077,59.985489 108.041138,59.879982 113.051140,59.994942 
	C114.751801,60.033966 116.439682,60.629295 118.303207,61.272507 
	C115.786652,62.494385 115.834595,63.944603 117.357803,66.053360 
	C120.038170,69.764107 118.749222,72.543907 114.966278,74.506805 
	C113.200882,75.422852 111.471977,76.467552 109.611382,77.131035 
	C103.754425,79.219612 99.026321,76.829567 94.637993,73.146515 
	C90.901726,70.010727 91.656105,66.611732 93.710655,62.942963 
	C94.151016,62.156616 93.923347,60.996166 94.404228,60.012756 
	C95.874352,60.013203 96.943672,60.008953 98.012993,60.004704 
z"/>
<path fill="#FEDABF" opacity="1.000000" stroke="none" 
	d="
M94.003426,60.008053 
	C93.923347,60.996166 94.151016,62.156616 93.710655,62.942963 
	C91.656105,66.611732 90.901726,70.010727 94.637993,73.146515 
	C99.026321,76.829567 103.754425,79.219612 109.611382,77.131035 
	C111.471977,76.467552 113.200882,75.422852 114.966278,74.506805 
	C118.749222,72.543907 120.038170,69.764107 117.357803,66.053360 
	C115.834595,63.944603 115.786652,62.494385 118.723778,61.361359 
	C119.427879,61.099976 119.881226,61.051834 120.667328,61.292152 
	C121.000099,61.580608 120.999542,62.008442 121.010544,62.362701 
	C122.017601,64.479210 123.013649,66.241463 124.007645,68.386200 
	C123.431519,74.826302 118.530327,76.208305 113.710632,78.071945 
	C112.935051,78.755318 112.467529,79.377968 111.683151,80.144653 
	C110.245018,80.527657 109.123741,80.766640 107.767509,80.777893 
	C106.354210,80.702034 105.175865,80.853889 103.637344,80.950714 
	C99.905304,79.505112 96.760155,76.770721 92.374130,79.145645 
	C89.994148,78.826767 87.997192,78.482994 86.220825,77.885948 
	C87.495934,77.058105 88.550446,76.483536 89.691063,75.862053 
	C83.381256,68.882835 83.360100,67.626518 89.219902,59.264729 
	C90.768318,59.505341 92.385872,59.756699 94.003426,60.008053 
z"/>
<path fill="#FAD0B0" opacity="1.000000" stroke="none" 
	d="
M114.018677,78.011223 
	C118.530327,76.208305 123.431519,74.826302 124.235703,68.133331 
	C124.313538,65.668182 124.161247,63.838371 124.353760,62.005409 
	C125.158173,61.992573 125.617790,61.982895 126.077400,61.973213 
	C127.135605,62.000725 128.193817,62.028236 129.644775,62.113777 
	C130.024231,65.495819 130.010925,68.819839 129.647461,72.635712 
	C126.946701,74.290710 126.098824,75.666550 128.250717,77.933495 
	C128.849091,78.563843 128.766983,79.840103 128.591843,80.889038 
	C124.075607,81.289543 119.964592,81.621063 115.629669,82.123398 
	C114.932640,82.865822 114.459518,83.437431 113.932953,83.723511 
	C112.923141,83.627876 111.966782,83.817764 110.754318,84.143555 
	C110.001045,84.855911 109.503883,85.432365 108.663177,86.157349 
	C105.954597,85.779541 103.535149,85.421425 101.239998,84.679031 
	C98.997223,83.953583 96.881287,82.835999 94.690125,81.593559 
	C94.032768,80.571297 93.394966,79.846024 92.757164,79.120750 
	C96.760155,76.770721 99.905304,79.505112 103.873062,81.176544 
	C105.646774,81.306816 106.824615,81.156212 108.002457,81.005615 
	C109.123741,80.766640 110.245018,80.527657 111.988892,80.080505 
	C113.080551,79.251961 113.549614,78.631592 114.018677,78.011223 
z"/>
<path fill="#362F29" opacity="1.000000" stroke="none" 
	d="
M94.008034,38.375534 
	C95.909225,38.750912 97.874512,39.391483 99.724060,40.274498 
	C101.308434,41.030907 102.760239,42.064972 104.932541,43.167747 
	C106.245514,44.301224 107.062889,45.169109 107.520882,46.197113 
	C110.622124,53.158012 118.455833,56.462780 126.293938,54.187859 
	C126.317993,55.592525 126.146530,56.770111 125.975052,57.947697 
	C117.862396,57.805405 109.749733,57.663113 101.300499,57.276012 
	C100.971901,56.859951 100.979881,56.688702 100.991577,56.260365 
	C106.064537,55.266003 103.311470,53.108521 101.953194,51.059643 
	C99.255722,46.990677 96.659805,42.854385 94.008034,38.375534 
z"/>
<path fill="#FACFAC" opacity="1.000000" stroke="none" 
	d="
M94.404228,60.012756 
	C92.385872,59.756699 90.768318,59.505341 89.219902,59.264729 
	C83.360100,67.626518 83.381256,68.882835 89.691063,75.862053 
	C88.550446,76.483536 87.495934,77.058105 85.784561,77.926872 
	C82.134041,77.921623 79.140366,77.622177 76.117432,76.997749 
	C76.064995,76.456467 76.041832,76.240173 76.404480,75.994919 
	C77.853889,74.352501 79.457077,72.859924 79.852119,71.096672 
	C80.416885,68.575920 80.345505,65.829773 80.058525,63.233742 
	C79.899422,61.794411 78.749184,60.464649 78.045685,59.085503 
	C84.588623,55.698536 91.029305,58.696808 97.759888,59.700939 
	C96.943672,60.008953 95.874352,60.013203 94.404228,60.012756 
z"/>
<path fill="#221A14" opacity="1.000000" stroke="none" 
	d="
M69.895096,39.177620 
	C76.996170,44.100021 83.842361,49.249363 90.857391,54.691200 
	C83.023552,52.888859 75.027290,50.740532 70.396698,42.939098 
	C69.813873,41.957184 69.876587,40.592110 69.895096,39.177620 
z"/>
<path fill="#F6C49C" opacity="1.000000" stroke="none" 
	d="
M77.720650,59.073517 
	C78.749184,60.464649 79.899422,61.794411 80.058525,63.233742 
	C80.345505,65.829773 80.416885,68.575920 79.852119,71.096672 
	C79.457077,72.859924 77.853889,74.352501 76.398682,75.528580 
	C75.335747,70.387787 74.664421,65.684372 73.993103,60.980961 
	C73.993103,60.980961 74.216965,60.605991 74.307510,60.407345 
	C75.397240,59.826309 76.396431,59.443924 77.720650,59.073517 
z"/>
<path fill="#221A14" opacity="1.000000" stroke="none" 
	d="
M126.256607,58.199635 
	C126.146530,56.770111 126.317993,55.592525 126.277473,53.791595 
	C124.033348,48.783344 122.001213,44.398430 119.969078,40.013515 
	C126.684097,44.203800 130.252136,50.313400 131.043060,58.534599 
	C129.557449,58.775726 128.047806,58.613647 126.256607,58.199635 
z"/>
<path fill="#FEE1C7" opacity="1.000000" stroke="none" 
	d="
M125.897102,61.624535 
	C125.617790,61.982895 125.158173,61.992573 123.977402,62.002007 
	C122.504005,62.003990 121.751778,62.006214 120.999542,62.008442 
	C120.999542,62.008442 121.000099,61.580608 121.002892,61.366707 
	C122.576057,61.193821 124.146431,61.234837 125.897102,61.624535 
z"/>
<path fill="#EAAF7C" opacity="1.000000" stroke="none" 
	d="
M67.006256,69.996407 
	C68.439468,67.706406 69.872681,65.416412 71.760368,63.335518 
	C72.843849,68.734756 73.472862,73.924881 74.080643,79.081955 
	C74.059418,79.048904 74.127754,79.010124 73.897461,79.155212 
	C73.458473,79.592957 73.249779,79.885605 72.998360,80.583069 
	C72.951653,81.697311 72.947662,82.406731 72.951706,83.079475 
	C72.959732,83.042793 73.033051,83.059067 72.912590,82.782333 
	C72.500778,82.788979 72.209435,83.072357 71.918083,83.355743 
	C72.277237,83.554604 72.636398,83.753464 73.251762,84.212585 
	C75.352760,85.222290 77.197540,85.971733 78.609360,86.722565 
	C76.733498,86.806824 75.290604,86.889679 73.557053,87.026329 
	C72.542976,87.376213 71.819572,87.672318 70.986679,87.600273 
	C70.249222,84.612373 69.711342,81.966522 68.962822,79.381676 
	C68.428505,77.536537 67.611298,75.773315 66.923553,73.575592 
	C66.953285,72.117233 66.979774,71.056816 67.006256,69.996407 
z"/>
<path fill="#624329" opacity="1.000000" stroke="none" 
	d="
M66.628143,70.005493 
	C66.979774,71.056816 66.953285,72.117233 66.713989,73.873734 
	C65.310822,78.699242 64.120468,82.828644 62.930115,86.958054 
	C62.502541,87.243240 62.074966,87.528435 61.434204,87.956940 
	C61.799809,83.290382 62.173851,78.441185 63.085316,73.695206 
	C63.350082,72.316582 65.152489,71.233269 66.628143,70.005493 
z"/>
<path fill="#F2BF96" opacity="1.000000" stroke="none" 
	d="
M74.101875,79.115013 
	C73.472862,73.924881 72.843849,68.734756 72.058174,63.161659 
	C72.406563,62.208168 72.911621,61.637638 73.704887,61.024036 
	C74.664421,65.684372 75.335747,70.387787 76.012871,75.557541 
	C76.041832,76.240173 76.064995,76.456467 76.144119,77.325943 
	C75.500671,78.357742 74.801270,78.736374 74.101875,79.115013 
z"/>
<path fill="#19120D" opacity="1.000000" stroke="none" 
	d="
M69.107117,54.036110 
	C69.194435,53.891689 69.372612,53.904018 69.819275,53.935211 
	C69.791168,54.033669 69.494576,54.113266 69.107117,54.036110 
z"/>
<path fill="#282119" opacity="1.000000" stroke="none" 
	d="
M78.052185,37.321865 
	C79.472824,37.883430 80.944420,38.782028 82.701904,39.842804 
	C80.891769,41.900715 80.591713,41.756599 78.052185,37.321865 
z"/>
<path fill="#E3A46A" opacity="1.000000" stroke="none" 
	d="
M133.012115,121.538353 
	C133.029190,122.428902 133.046249,123.319443 132.694092,124.646248 
	C129.192245,125.085136 126.059624,125.087776 122.573570,125.043900 
	C118.495399,121.657974 114.770660,118.318573 111.003647,114.691544 
	C110.656799,113.933510 110.352242,113.463112 109.988205,112.615936 
	C109.576103,110.493950 109.223473,108.748756 109.222488,106.987961 
	C109.807930,106.952019 110.041710,106.931679 110.482010,107.161682 
	C111.362198,108.773682 112.035873,110.135338 112.793053,111.815430 
	C114.958015,114.471687 117.039474,116.809509 119.351395,119.407043 
	C123.382126,120.206062 127.182396,120.745377 131.316742,121.258781 
	C132.092880,121.170593 132.534927,121.108307 132.980118,121.169510 
	C132.983246,121.292999 133.012115,121.538353 133.012115,121.538353 
z"/>
<path fill="#F2BA8B" opacity="1.000000" stroke="none" 
	d="
M122.927002,125.090416 
	C126.059624,125.087776 129.192245,125.085136 132.709869,124.979980 
	C134.467926,124.515923 135.840988,124.154396 137.642242,123.860886 
	C138.070419,123.928909 138.292282,124.068153 138.292297,124.068153 
	C138.243210,124.494453 138.194138,124.920753 137.839233,125.882217 
	C136.707092,128.325134 135.880768,130.232864 135.054428,132.140610 
	C132.644302,131.817612 130.234161,131.494629 127.270279,130.800171 
	C125.464432,129.644272 124.212341,128.859848 122.974197,127.701347 
	C122.967766,126.581642 122.947380,125.836029 122.927002,125.090416 
z"/>
<path fill="#504840" opacity="1.000000" stroke="none" 
	d="
M143.863754,103.994698 
	C143.891205,105.061401 143.918655,106.128105 143.968872,107.594971 
	C141.833511,111.140160 139.675354,114.285172 136.976257,117.646706 
	C135.808716,117.845856 135.182144,117.828491 134.563446,117.510345 
	C135.021515,116.574135 135.471680,115.938690 136.218170,115.214035 
	C137.787231,113.059364 139.059952,110.993896 140.533875,108.665756 
	C140.857239,107.294304 140.979431,106.185539 141.171753,104.647781 
	C140.891647,101.469574 140.541397,98.720367 140.519348,96.082352 
	C142.061386,96.910194 143.275192,97.626839 144.489014,98.343491 
	C144.351868,99.008842 144.214722,99.674194 143.696075,100.749199 
	C143.497635,102.104126 143.680695,103.049416 143.863754,103.994698 
z"/>
<path fill="#8C603A" opacity="1.000000" stroke="none" 
	d="
M145.837402,101.992699 
	C146.695435,102.099983 147.348770,102.361832 148.497360,102.804047 
	C148.462769,104.957603 148.048004,106.972343 147.356537,108.887154 
	C146.988434,109.906471 146.141479,110.752861 145.510666,111.677307 
	C145.001572,110.698212 144.492493,109.719109 143.984100,108.366722 
	C144.534103,106.044708 145.083405,104.095985 145.837402,101.992699 
z"/>
<path fill="#E3A46A" opacity="1.000000" stroke="none" 
	d="
M135.390030,132.099762 
	C135.880768,130.232864 136.707092,128.325134 137.811096,126.202789 
	C138.384521,126.803284 138.680252,127.618378 139.013641,128.770752 
	C137.942734,130.091660 136.834183,131.075287 135.390030,132.099762 
z"/>
<path fill="#F8CAA5" opacity="1.000000" stroke="none" 
	d="
M134.555557,117.811119 
	C135.182144,117.828491 135.808716,117.845856 136.752075,117.882912 
	C135.949799,119.031586 134.830734,120.160568 133.361893,121.413956 
	C133.012115,121.538353 132.983246,121.292999 133.003708,120.782333 
	C133.534637,119.451477 134.045090,118.631302 134.555557,117.811119 
z"/>
<path fill="#E3A46A" opacity="1.000000" stroke="none" 
	d="
M138.000366,123.818260 
	C138.329117,123.315414 138.727936,122.923218 139.126740,122.531021 
	C138.999756,122.998047 138.872787,123.465080 138.519043,124.000137 
	C138.292282,124.068153 138.070419,123.928909 138.000366,123.818260 
z"/>
<path fill="#3C3732" opacity="1.000000" stroke="none" 
	d="
M119.983719,40.005615 
	C122.001213,44.398430 124.033348,48.783344 126.081947,53.564522 
	C118.455833,56.462780 110.622124,53.158012 107.520882,46.197113 
	C107.062889,45.169109 106.245514,44.301224 105.298203,43.179680 
	C103.671158,39.910549 102.340324,36.820992 101.001312,33.363388 
	C104.005577,36.026127 106.992455,39.082981 110.042679,42.075256 
	C111.319809,43.328125 112.731308,44.444019 114.081718,45.622185 
	C115.134705,43.604134 116.187691,41.586086 117.118462,39.259949 
	C117.170906,38.956657 117.345573,38.961464 118.021500,38.986935 
	C118.522766,39.007603 119.003212,39.030369 119.003212,39.030369 
	C119.003212,39.030369 119.007446,38.995861 119.117325,39.208691 
	C119.435089,39.687416 119.693169,39.889080 120.001442,40.026512 
	C120.001442,40.026512 119.998352,39.997715 119.983719,40.005615 
z"/>
<path fill="#3C3732" opacity="1.000000" stroke="none" 
	d="
M100.876770,32.809532 
	C100.602699,32.789043 100.200729,32.571198 99.904366,32.198597 
	C100.300362,32.175957 100.546669,32.365398 100.876770,32.809532 
z"/>
<path fill="#F7C194" opacity="1.000000" stroke="none" 
	d="
M57.806385,103.996109 
	C56.585831,103.619774 55.365276,103.243431 54.144722,102.867081 
	C55.659374,101.825874 57.174026,100.784660 58.908413,100.241158 
	C59.050865,101.434593 58.973583,102.130325 58.667191,102.972366 
	C58.227512,103.411163 58.016949,103.703636 57.806385,103.996109 
z"/>
<path fill="#936941" opacity="1.000000" stroke="none" 
	d="
M57.855946,104.429947 
	C58.016949,103.703636 58.227512,103.411163 58.691643,103.270157 
	C58.965965,103.619690 58.986713,103.817764 59.011391,104.401772 
	C59.279831,106.242310 59.544346,107.696915 59.843376,109.521881 
	C60.430542,110.601349 60.983192,111.310448 61.535847,112.019547 
	C60.932022,112.678062 60.328197,113.336578 59.424606,113.971008 
	C58.718391,110.919205 58.311947,107.891495 57.855946,104.429947 
z"/>
<path fill="#825031" opacity="1.000000" stroke="none" 
	d="
M59.007458,104.015831 
	C58.986713,103.817764 58.965965,103.619690 58.920757,103.123840 
	C58.973583,102.130325 59.050865,101.434593 59.137920,100.388779 
	C59.407188,99.546692 59.666683,99.054695 60.018066,98.295532 
	C60.449745,98.038666 60.789528,98.048958 61.446220,98.453751 
	C61.495537,100.579330 61.227943,102.310425 60.634766,104.022018 
	C59.875271,104.006966 59.441364,104.011398 59.007458,104.015831 
z"/>
<path fill="#39322C" opacity="1.000000" stroke="none" 
	d="
M131.025238,46.297367 
	C133.005173,49.351921 134.987137,52.795464 136.982727,56.617737 
	C132.431046,55.050915 132.964127,50.153637 131.025238,46.297367 
z"/>
<path fill="#221A14" opacity="1.000000" stroke="none" 
	d="
M118.911629,38.895458 
	C119.003212,39.030369 118.522766,39.007603 118.283600,38.987900 
	C118.250397,38.624962 118.508934,38.555744 118.911629,38.895458 
z"/>
<path fill="#221A14" opacity="1.000000" stroke="none" 
	d="
M119.873367,39.814835 
	C119.693169,39.889080 119.435089,39.687416 119.099945,39.208912 
	C119.278961,39.136543 119.536499,39.338829 119.873367,39.814835 
z"/>
<path fill="#39322C" opacity="1.000000" stroke="none" 
	d="
M129.141006,44.199409 
	C129.312180,44.129665 129.573273,44.328510 129.936386,44.786266 
	C129.813217,44.795044 129.544067,44.602654 129.141006,44.199409 
z"/>
<path fill="#433D39" opacity="1.000000" stroke="none" 
	d="
M70.994537,115.048843 
	C68.788406,112.249100 66.582275,109.449364 64.213074,105.937874 
	C63.757439,102.384949 63.464878,99.543777 63.172318,96.702606 
	C63.110474,94.046532 63.048630,91.390457 63.452496,88.246414 
	C66.002441,87.828445 68.086670,87.898453 70.051521,88.285538 
	C69.251549,89.719093 68.570953,90.835571 67.582993,92.145882 
	C65.049858,95.075569 65.695396,97.640785 67.617317,100.431519 
	C67.517563,102.869408 67.538681,104.998734 67.618210,107.428177 
	C68.272224,108.529846 68.867821,109.331413 69.633102,110.413818 
	C70.186371,110.880791 70.569946,111.066910 70.899132,111.218552 
	C70.844742,111.184059 70.761169,111.282074 70.849983,111.652725 
	C70.957375,113.031868 70.975952,114.040352 70.994537,115.048843 
z"/>
<path fill="#DC9F66" opacity="1.000000" stroke="none" 
	d="
M70.170898,87.968460 
	C68.086670,87.898453 66.002441,87.828445 63.472435,87.796577 
	C63.026657,87.834717 63.048744,87.388885 62.989429,87.173470 
	C64.120468,82.828644 65.310822,78.699242 66.710754,74.271683 
	C67.611298,75.773315 68.428505,77.536537 68.962822,79.381676 
	C69.711342,81.966522 70.249222,84.612373 70.754837,87.621201 
	C70.632462,88.010277 70.170898,87.968460 70.170898,87.968460 
z"/>
<path fill="#BE8654" opacity="1.000000" stroke="none" 
	d="
M62.896576,96.910408 
	C63.464878,99.543777 63.757439,102.384949 64.029938,105.652588 
	C63.617081,106.134064 63.224277,106.189064 62.041412,106.151260 
	C61.154346,105.386139 61.057346,104.713829 60.960350,104.041512 
	C61.227943,102.310425 61.495537,100.579330 61.700977,98.467667 
	C61.966160,97.764130 62.293495,97.441170 62.896576,96.910408 
z"/>
<path fill="#473F37" opacity="1.000000" stroke="none" 
	d="
M144.775024,98.262695 
	C143.275192,97.626839 142.061386,96.910194 140.348541,95.781265 
	C139.455124,94.545235 139.060730,93.721474 138.745361,92.953217 
	C138.824387,93.008728 138.953857,92.865402 138.953857,92.865402 
	C139.712021,92.889565 140.470200,92.913727 141.789490,93.156021 
	C142.350632,93.374146 142.816147,93.517509 142.816147,93.517509 
	C142.816147,93.517509 143.294861,93.427147 143.294861,93.427147 
	C143.654907,93.500877 144.014969,93.574615 144.646942,93.687057 
	C145.295776,94.947182 145.672653,96.168617 146.149567,97.771179 
	C145.853394,98.162170 145.457214,98.172035 144.775024,98.262695 
z"/>
<path fill="#473F37" opacity="1.000000" stroke="none" 
	d="
M143.932953,103.623871 
	C143.680695,103.049416 143.497635,102.104126 143.608978,101.077744 
	C143.936310,101.748779 143.969223,102.500916 143.932953,103.623871 
z"/>
<path fill="#220E09" opacity="1.000000" stroke="none" 
	d="
M80.145683,131.120728 
	C80.168678,129.015503 79.918015,126.653954 83.672668,128.222931 
	C86.643562,133.085403 91.191216,132.418411 95.353806,133.377808 
	C98.225334,134.038132 100.998917,134.336792 104.210312,134.763458 
	C107.048752,134.774979 109.449387,134.658539 112.163345,134.593552 
	C113.259720,134.346436 114.042770,134.047852 115.079811,133.683243 
	C115.648582,133.217072 115.963356,132.816940 116.601028,132.343185 
	C117.574326,132.152542 118.224716,132.035522 119.122025,132.140488 
	C119.630875,132.964584 119.892799,133.566681 120.092484,134.501617 
	C119.319847,136.187256 118.609451,137.540054 117.584694,138.997162 
	C116.080856,140.038254 114.891380,140.975037 113.414322,141.985382 
	C112.428581,142.373383 111.730415,142.687836 110.877777,142.652832 
	C104.428436,138.532562 97.661179,139.057053 90.540680,139.992737 
	C89.191803,139.164124 88.137367,138.458893 86.953949,137.481934 
	C85.922760,136.431656 85.020561,135.653076 83.987900,134.555817 
	C82.620178,133.198318 81.382935,132.159515 80.145683,131.120728 
z"/>
<path fill="#F1A27C" opacity="1.000000" stroke="none" 
	d="
M87.082932,137.753662 
	C88.137367,138.458893 89.191803,139.164124 90.701523,140.302948 
	C92.751862,141.596161 94.346916,142.455795 96.179375,143.587021 
	C99.268463,144.054443 102.120132,144.250290 105.395416,144.358810 
	C107.543037,144.178925 109.267044,144.086334 110.826820,144.295410 
	C107.767059,146.264908 104.871529,147.932755 101.975998,149.600601 
	C101.567154,149.598785 101.158310,149.596954 100.354828,149.217316 
	C99.229057,148.620407 98.497917,148.401321 97.766777,148.182220 
	C97.393387,148.175262 97.020004,148.168304 96.163712,147.907974 
	C93.133545,145.776947 90.586288,143.899307 87.789162,141.741791 
	C87.387177,140.225845 87.235054,138.989746 87.082932,137.753662 
z"/>
<path fill="#FAD0B0" opacity="1.000000" stroke="none" 
	d="
M81.461678,124.869110 
	C80.705330,124.056252 80.391472,123.341820 80.438980,122.329330 
	C82.234398,121.640282 83.668449,121.249275 85.418724,120.792969 
	C86.183464,119.835754 86.631966,118.943848 87.041664,118.056366 
	C87.002853,118.060799 87.077042,118.085907 87.406372,118.135178 
	C89.485123,117.765144 91.234543,117.345833 93.026711,117.340393 
	C93.375366,120.137863 93.681274,122.521469 93.987183,124.905067 
	C93.532509,124.891258 93.077835,124.877441 92.135071,124.595657 
	C91.120667,124.478439 90.594360,124.629204 90.068054,124.779968 
	C87.346756,124.842476 84.625458,124.904999 81.461678,124.869110 
z"/>
<path fill="#FACFAC" opacity="1.000000" stroke="none" 
	d="
M122.573570,125.043900 
	C122.947380,125.836029 122.967766,126.581642 122.654800,127.662292 
	C121.546509,127.714233 120.771561,127.431145 119.996613,127.148056 
	C119.602844,127.006813 119.209076,126.865562 118.311401,126.548264 
	C117.449623,126.249557 117.153854,126.337051 116.920166,126.634689 
	C116.519958,126.582550 116.119751,126.530403 115.034729,126.289825 
	C113.235741,126.029808 112.121559,125.958221 111.047989,125.515671 
	C110.694695,121.766907 110.300789,118.389099 110.192184,115.005005 
	C110.666985,114.992195 110.856461,114.985680 111.045929,114.979172 
	C114.770660,118.318573 118.495399,121.657974 122.573570,125.043900 
z"/>
<path fill="#825031" opacity="1.000000" stroke="none" 
	d="
M95.255867,133.016159 
	C91.191216,132.418411 86.643562,133.085403 83.972542,128.358994 
	C89.079811,128.939926 94.230865,129.885666 99.681915,131.178314 
	C99.983170,131.691940 99.984413,131.858658 99.979782,132.230484 
	C99.973907,132.435577 99.972786,132.846558 99.579712,132.883759 
	C97.876373,132.952682 96.566124,132.984421 95.255867,133.016159 
z"/>
<path fill="#EAAF7C" opacity="1.000000" stroke="none" 
	d="
M109.906876,115.011292 
	C110.300789,118.389099 110.694695,121.766907 110.762680,125.617569 
	C110.257202,126.183464 110.077652,126.276497 109.898094,126.369537 
	C109.162704,126.351120 108.427322,126.332710 107.433304,125.928596 
	C107.258972,124.348801 111.423691,122.942680 106.961395,121.586151 
	C106.609955,119.467148 106.286835,117.745361 105.989990,115.689850 
	C106.344849,114.564301 106.673439,113.772484 107.321747,112.997475 
	C108.068192,113.023438 108.494919,113.032585 108.968475,113.323463 
	C109.312485,114.073891 109.609680,114.542587 109.906876,115.011292 
M109.326180,120.513054 
	C109.326180,120.513054 109.499191,120.625084 109.499191,120.625084 
	C109.499191,120.625084 109.481445,120.390968 109.326180,120.513054 
z"/>
<path fill="#8C603A" opacity="1.000000" stroke="none" 
	d="
M106.989716,121.983368 
	C111.423691,122.942680 107.258972,124.348801 107.069153,125.871384 
	C103.855568,126.118759 100.747498,126.037636 97.211823,125.417297 
	C96.031670,123.003540 93.167877,121.271011 96.411079,119.418411 
	C96.495972,119.887993 96.567276,120.067772 96.690582,120.615242 
	C99.849899,124.439934 103.193031,125.497986 106.991989,121.994843 
	C106.998947,121.999924 106.989716,121.983368 106.989716,121.983368 
z"/>
<path fill="#F6C49C" opacity="1.000000" stroke="none" 
	d="
M117.899048,138.892853 
	C118.609451,137.540054 119.319847,136.187256 120.310226,134.320557 
	C121.244392,133.830780 122.439171,133.744934 122.469887,133.895889 
	C122.811142,135.573410 122.972252,137.287582 123.181999,138.991852 
	C121.855705,140.791061 120.529411,142.590256 118.840897,144.814377 
	C118.247589,145.453476 118.095901,145.713913 118.023621,146.020599 
	C117.575577,146.439240 117.127541,146.857880 116.404541,147.023560 
	C116.719391,144.144684 117.309219,141.518768 117.899048,138.892853 
z"/>
<path fill="#E1A46D" opacity="1.000000" stroke="none" 
	d="
M117.584686,138.997162 
	C117.309219,141.518768 116.719391,144.144684 116.130737,147.165298 
	C113.304276,148.468201 110.476639,149.376404 107.551682,149.845734 
	C109.398338,148.208160 111.557182,147.238129 113.187859,145.705978 
	C113.910004,145.027481 113.563370,143.211472 113.701904,141.911819 
	C114.891380,140.975037 116.080856,140.038254 117.584686,138.997162 
z"/>
<path fill="#281D13" opacity="1.000000" stroke="none" 
	d="
M123.526794,138.857758 
	C122.972252,137.287582 122.811142,135.573410 122.469887,133.895889 
	C122.439171,133.744934 121.244392,133.830780 120.372467,133.987732 
	C119.892799,133.566681 119.630875,132.964584 119.175316,131.843964 
	C118.872787,130.938843 118.763893,130.552261 118.654999,130.165665 
	C119.091881,129.393173 119.528755,128.620682 119.981125,127.498123 
	C120.771561,127.431145 121.546509,127.714233 122.640854,128.036377 
	C124.212341,128.859848 125.464432,129.644272 126.924271,130.691147 
	C126.045204,133.543625 124.958397,136.133636 123.526794,138.857758 
z"/>
<path fill="#F2BA8B" opacity="1.000000" stroke="none" 
	d="
M86.953949,137.481934 
	C87.235054,138.989746 87.387177,140.225845 87.774139,142.204300 
	C88.052979,144.500931 88.096985,146.055176 88.140991,147.609436 
	C86.879433,146.600739 85.617874,145.592026 84.411797,144.030182 
	C84.350975,140.609528 84.234673,137.742020 84.118362,134.874512 
	C85.020561,135.653076 85.922760,136.431656 86.953949,137.481934 
z"/>
<path fill="#F2CAAC" opacity="1.000000" stroke="none" 
	d="
M83.987900,134.555817 
	C84.234673,137.742020 84.350975,140.609528 84.257141,143.722702 
	C80.570923,141.046356 79.432999,137.244263 79.998306,132.209045 
	C80.133842,131.566025 80.160736,131.071228 80.160736,131.071228 
	C80.160736,131.071228 80.096291,131.078659 80.120987,131.099701 
	C81.382935,132.159515 82.620178,133.198318 83.987900,134.555817 
z"/>
<path fill="#EAAF7C" opacity="1.000000" stroke="none" 
	d="
M96.397499,119.128624 
	C93.167877,121.271011 96.031670,123.003540 96.902878,125.227318 
	C96.243042,125.473312 95.464561,125.370071 94.336624,125.085945 
	C93.681274,122.521469 93.375366,120.137863 93.038307,117.360519 
	C93.007156,116.966766 92.964020,116.979744 93.278603,116.947495 
	C94.041092,116.274170 94.489006,115.633102 95.228012,114.853004 
	C97.271881,113.446342 98.963135,112.348053 98.706535,116.209801 
	C97.778862,117.350441 97.088181,118.239532 96.397499,119.128624 
z"/>
<path fill="#E1A46D" opacity="1.000000" stroke="none" 
	d="
M88.330154,147.845459 
	C88.096985,146.055176 88.052979,144.500931 88.024002,142.484161 
	C90.586288,143.899307 93.133545,145.776947 95.884254,147.930115 
	C93.520058,150.898544 91.020309,149.452209 88.330154,147.845459 
z"/>
<path fill="#BE8654" opacity="1.000000" stroke="none" 
	d="
M113.414322,141.985382 
	C113.563370,143.211472 113.910004,145.027481 113.187859,145.705978 
	C111.557182,147.238129 109.398338,148.208160 107.250198,149.670990 
	C105.625145,149.914703 104.204247,149.894272 102.379677,149.737213 
	C104.871529,147.932755 107.767059,146.264908 110.837814,144.047562 
	C111.013039,143.498062 111.032249,143.002289 111.032249,143.002289 
	C111.730415,142.687836 112.428581,142.373383 113.414322,141.985382 
z"/>
<path fill="#AF6A42" opacity="1.000000" stroke="none" 
	d="
M118.266510,130.169800 
	C118.763893,130.552261 118.872787,130.938843 118.928391,131.621979 
	C118.224716,132.035522 117.574326,132.152542 116.131531,132.228683 
	C111.629036,132.189880 107.918938,132.191956 103.786842,132.137451 
	C102.238449,132.062363 101.112045,132.043884 99.985649,132.025391 
	C99.984413,131.858658 99.983170,131.691940 99.999062,131.275772 
	C100.434776,131.005402 100.853348,130.984467 102.047829,130.973877 
	C106.537842,130.714294 110.251953,130.444366 113.966057,130.174423 
	C115.270042,130.174271 116.574036,130.174103 118.266510,130.169800 
z"/>
<path fill="#C28F5F" opacity="1.000000" stroke="none" 
	d="
M113.512329,130.119186 
	C110.251953,130.444366 106.537842,130.714294 102.362198,130.967041 
	C105.619980,130.654556 109.339287,130.359253 113.512329,130.119186 
z"/>
<path fill="#8C603A" opacity="1.000000" stroke="none" 
	d="
M110.182602,126.557045 
	C110.077652,126.276497 110.257202,126.183464 110.722069,125.988525 
	C112.121559,125.958221 113.235741,126.029808 114.732460,126.272911 
	C113.565697,126.544472 112.016403,126.644508 110.182602,126.557045 
z"/>
<path fill="#BE8654" opacity="1.000000" stroke="none" 
	d="
M97.869003,148.492783 
	C98.497917,148.401321 99.229057,148.620407 100.058105,149.134964 
	C99.427750,149.221390 98.699486,149.012360 97.869003,148.492783 
z"/>
<path fill="#EAAF7C" opacity="1.000000" stroke="none" 
	d="
M90.387527,124.830849 
	C90.594360,124.629204 91.120667,124.478439 91.807884,124.495544 
	C91.548203,124.736191 91.127609,124.808960 90.387527,124.830849 
z"/>
<path fill="#E1A46D" opacity="1.000000" stroke="none" 
	d="
M118.280502,145.955902 
	C118.095901,145.713913 118.247589,145.453476 118.667557,145.109863 
	C118.750084,145.284027 118.643738,145.587601 118.280502,145.955902 
z"/>
<path fill="#220E09" opacity="1.000000" stroke="none" 
	d="
M80.010681,131.138489 
	C80.160736,131.071228 80.133842,131.566025 80.009651,131.780579 
	C79.583099,131.711105 79.574821,131.447983 80.010681,131.138489 
z"/>
<path fill="#8C603A" opacity="1.000000" stroke="none" 
	d="
M117.113251,126.770020 
	C117.153854,126.337051 117.449623,126.249557 117.994820,126.529663 
	C118.182152,126.687119 117.776924,126.927376 117.776924,126.927376 
	C117.776924,126.927376 117.306343,126.905342 117.113251,126.770020 
z"/>
<path fill="#F0D6C1" opacity="1.000000" stroke="none" 
	d="
M71.293610,115.267639 
	C70.975952,114.040352 70.957375,113.031868 71.253967,111.578110 
	C76.062469,110.733635 79.367546,109.226517 78.828606,103.747253 
	C83.492134,103.750114 89.159485,108.449509 90.865608,98.864616 
	C91.983467,100.505600 92.513741,101.284027 93.109787,102.348320 
	C93.767731,103.097328 94.359901,103.560478 94.975876,104.011734 
	C94.999695,103.999847 94.949280,104.022552 94.761841,104.309570 
	C93.720093,106.381950 92.865776,108.167320 91.731712,109.896881 
	C91.125725,110.023262 90.799492,110.205444 90.318047,110.484009 
	C90.162834,110.580399 89.991905,110.903358 89.710518,111.007645 
	C88.470795,111.826904 87.512451,112.541862 86.226677,113.294228 
	C85.256447,113.835976 84.613647,114.340317 83.549316,114.926300 
	C80.780334,115.335060 78.432907,115.662193 76.085472,115.989319 
	C74.587875,115.821693 73.090286,115.654068 71.293610,115.267639 
z"/>
<path fill="#E9AA72" opacity="1.000000" stroke="none" 
	d="
M85.102493,120.858276 
	C83.668449,121.249275 82.234398,121.640282 80.423721,122.034256 
	C77.520256,121.294113 74.993423,120.551018 72.466591,119.807915 
	C72.499649,119.451263 72.532707,119.094620 72.565765,118.737968 
	C73.828911,118.252533 75.092056,117.767090 77.071762,117.152328 
	C79.527351,116.721725 81.266380,116.420448 83.233490,116.043671 
	C83.461571,115.968178 83.919052,115.821220 84.226570,115.870613 
	C84.946945,115.887657 85.359802,115.855301 86.033203,116.037827 
	C86.554855,116.863770 86.815948,117.474838 87.077042,118.085907 
	C87.077042,118.085907 87.002853,118.060799 86.719658,118.127716 
	C85.991806,119.082512 85.547150,119.970398 85.102493,120.858276 
z"/>
<path fill="#281D13" opacity="1.000000" stroke="none" 
	d="
M60.634766,104.022018 
	C61.057346,104.713829 61.154346,105.386139 61.449875,106.214905 
	C61.666397,106.656021 61.689178,106.940308 61.740723,107.436081 
	C61.554836,107.968895 61.344978,108.289818 60.765007,108.825760 
	C60.199547,109.077682 60.004204,109.114594 59.808857,109.151512 
	C59.544346,107.696915 59.279831,106.242310 59.011391,104.401772 
	C59.441364,104.011398 59.875271,104.006966 60.634766,104.022018 
z"/>
<path fill="#282119" opacity="1.000000" stroke="none" 
	d="
M83.919052,115.821220 
	C83.919052,115.821220 83.461571,115.968178 82.804459,116.014328 
	C80.435646,116.088837 78.723946,116.117188 77.012253,116.145538 
	C77.012253,116.145538 76.559593,116.003120 76.322533,115.996216 
	C78.432907,115.662193 80.780334,115.335060 83.518402,115.169434 
	C83.909042,115.330925 83.919052,115.821220 83.919052,115.821220 
z"/>
<path fill="#C99568" opacity="1.000000" stroke="none" 
	d="
M77.007828,116.361351 
	C78.723946,116.117188 80.435646,116.088837 82.576378,116.089828 
	C81.266380,116.420448 79.527351,116.721725 77.390228,117.015869 
	C76.992134,117.008728 77.003395,116.577164 77.007828,116.361351 
z"/>
<path fill="#4B3622" opacity="1.000000" stroke="none" 
	d="
M59.843376,109.521881 
	C60.004204,109.114594 60.199547,109.077682 60.692253,109.018753 
	C61.125824,109.751732 61.262035,110.506721 61.467041,111.640625 
	C60.983192,111.310448 60.430542,110.601349 59.843376,109.521881 
z"/>
<path fill="#F2BF96" opacity="1.000000" stroke="none" 
	d="
M109.006714,86.008820 
	C109.503883,85.432365 110.001045,84.855911 111.126266,84.142914 
	C112.498344,84.007256 113.242371,84.008148 113.986389,84.009041 
	C114.459518,83.437431 114.932640,82.865822 115.632507,82.523476 
	C118.671082,83.311394 121.492210,84.367874 124.292633,84.315590 
	C128.840225,84.230690 133.520050,82.749092 136.984680,87.188339 
	C137.040253,87.900162 137.095840,88.611984 136.757767,89.647682 
	C131.556046,89.971558 126.747993,89.971558 121.939934,89.971558 
	C121.961052,90.453873 121.982170,90.936195 122.003288,91.418510 
	C126.234917,91.982208 130.466537,92.545898 134.452148,93.367844 
	C129.437958,93.419930 124.669792,93.213776 119.865219,92.658432 
	C118.567978,91.551323 117.307129,90.793419 115.774338,89.816086 
	C113.342148,89.405647 111.181885,89.214645 109.016541,88.646713 
	C109.009872,87.516129 109.008293,86.762474 109.006714,86.008820 
z"/>
<path fill="#3E2C1C" opacity="1.000000" stroke="none" 
	d="
M137.050690,86.798691 
	C133.520050,82.749092 128.840225,84.230690 124.292633,84.315590 
	C121.492210,84.367874 118.671082,83.311394 115.856415,82.352661 
	C119.964592,81.621063 124.075607,81.289543 129.001770,80.955040 
	C131.195480,80.988274 132.574020,81.024498 133.952576,81.060722 
	C134.747589,81.966148 135.542603,82.871574 136.610474,83.916412 
	C136.961105,84.840233 137.038895,85.624641 137.050690,86.798691 
z"/>
<path fill="#D4A67F" opacity="1.000000" stroke="none" 
	d="
M134.698166,93.109596 
	C130.466537,92.545898 126.234917,91.982208 122.003288,91.418510 
	C121.982170,90.936195 121.961052,90.453873 121.939934,89.971558 
	C126.747993,89.971558 131.556046,89.971558 136.789825,90.003899 
	C137.789169,90.766495 138.362762,91.496758 138.945114,92.546211 
	C138.953857,92.865402 138.824387,93.008728 138.479645,93.035233 
	C136.989319,93.077682 135.843750,93.093636 134.698166,93.109596 
z"/>
<path fill="#8C603A" opacity="1.000000" stroke="none" 
	d="
M143.102173,93.289413 
	C143.294861,93.427147 142.816147,93.517509 142.816147,93.517509 
	C142.816147,93.517509 142.350632,93.374146 142.165390,93.216736 
	C142.300552,92.983101 142.610336,93.013885 143.102173,93.289413 
z"/>
<path fill="#FACFAC" opacity="1.000000" stroke="none" 
	d="
M133.951477,80.719177 
	C132.574020,81.024498 131.195480,80.988274 129.406998,80.886047 
	C128.766983,79.840103 128.849091,78.563843 128.250717,77.933495 
	C126.098824,75.666550 126.946701,74.290710 129.644989,73.063156 
	C131.079697,74.988091 132.166733,76.977417 133.620056,78.989075 
	C133.974350,79.466812 133.962357,79.922226 133.951477,80.719177 
z"/>
<path fill="#4B3622" opacity="1.000000" stroke="none" 
	d="
M74.080643,79.081955 
	C74.801270,78.736374 75.500671,78.357742 76.173386,77.650925 
	C79.140366,77.622177 82.134041,77.921623 85.563972,78.180145 
	C87.997192,78.482994 89.994148,78.826767 92.374130,79.145645 
	C93.394966,79.846024 94.032768,80.571297 94.365013,81.763077 
	C91.353928,82.579277 88.258835,83.934196 86.024406,83.068268 
	C81.449783,81.295410 77.306526,80.787735 72.943672,83.116158 
	C72.947662,82.406731 72.951653,81.697311 73.248184,80.460068 
	C73.736404,79.624878 73.932076,79.317497 74.127754,79.010124 
	C74.127754,79.010124 74.059418,79.048904 74.080643,79.081955 
z"/>
<path fill="#FED8BD" opacity="1.000000" stroke="none" 
	d="
M121.010544,62.362701 
	C121.751778,62.006214 122.504005,62.003990 123.632599,62.005165 
	C124.161247,63.838371 124.313538,65.668182 124.237762,67.750854 
	C123.013649,66.241463 122.017601,64.479210 121.010544,62.362701 
z"/>
<path fill="#FED8BD" opacity="1.000000" stroke="none" 
	d="
M107.767509,80.777893 
	C106.824615,81.156212 105.646774,81.306816 104.233223,81.231583 
	C105.175865,80.853889 106.354210,80.702034 107.767509,80.777893 
z"/>
<path fill="#FED8BD" opacity="1.000000" stroke="none" 
	d="
M113.710625,78.071945 
	C113.549614,78.631592 113.080551,79.251961 112.305748,79.936478 
	C112.467529,79.377968 112.935051,78.755318 113.710625,78.071945 
z"/>
<path fill="#F7C69D" opacity="1.000000" stroke="none" 
	d="
M72.951706,83.079475 
	C77.306526,80.787735 81.449783,81.295410 86.024406,83.068268 
	C88.258835,83.934196 91.353928,82.579277 94.384567,82.060059 
	C96.881287,82.835999 98.997223,83.953583 101.239998,84.679031 
	C103.535149,85.421425 105.954597,85.779541 108.663177,86.157349 
	C109.008293,86.762474 109.009872,87.516129 109.006622,89.069382 
	C108.932793,90.712379 108.863800,91.555763 108.421906,92.312630 
	C107.042389,92.130630 106.035774,92.035149 104.630951,91.851151 
	C103.162422,91.872688 102.092079,91.982750 100.693558,92.051819 
	C99.564545,92.289742 98.763718,92.568649 97.554626,92.804367 
	C96.429970,92.805283 95.713585,92.849388 95.001816,92.943436 
	C95.006424,92.993370 95.106201,92.983078 95.356247,92.669594 
	C94.390282,91.903732 93.174263,91.451355 91.714920,90.983040 
	C91.471603,90.967102 91.003845,90.829079 90.899490,90.651680 
	C90.620834,90.253517 90.403526,90.089874 89.979660,89.788757 
	C89.546562,89.392700 89.276993,89.191231 88.755630,88.715622 
	C86.281433,87.989594 84.059021,87.537697 81.481400,87.069656 
	C80.431572,86.942734 79.736946,86.831955 79.042328,86.721176 
	C77.197540,85.971733 75.352760,85.222290 73.313690,83.991562 
	C73.119408,83.510269 73.033051,83.059067 73.033051,83.059067 
	C73.033051,83.059067 72.959732,83.042793 72.951706,83.079475 
z"/>
<path fill="#F7C69D" opacity="1.000000" stroke="none" 
	d="
M113.932945,83.723511 
	C113.242371,84.008148 112.498344,84.007256 111.382370,84.007011 
	C111.966782,83.817764 112.923141,83.627876 113.932945,83.723511 
z"/>
<path fill="#ECB88E" opacity="1.000000" stroke="none" 
	d="
M81.836617,87.085808 
	C84.059021,87.537697 86.281433,87.989594 88.896652,88.930878 
	C89.574043,89.607964 89.858620,89.795654 90.143196,89.983345 
	C90.403526,90.089874 90.620834,90.253517 90.694794,90.907761 
	C89.078873,91.258476 87.563278,91.175713 85.764633,90.835220 
	C83.733231,90.630684 81.977943,90.603310 80.237923,90.753189 
	C76.118210,91.108047 72.005753,91.547058 67.890358,91.952049 
	C68.570953,90.835571 69.251549,89.719093 70.051521,88.285538 
	C70.170898,87.968460 70.632462,88.010277 70.864311,87.989349 
	C71.819572,87.672318 72.542976,87.376213 73.784149,87.364319 
	C76.813484,87.460945 79.325050,87.273376 81.836617,87.085808 
z"/>
<path fill="#716964" opacity="1.000000" stroke="none" 
	d="
M81.481400,87.069656 
	C79.325050,87.273376 76.813484,87.460945 74.074814,87.310532 
	C75.290604,86.889679 76.733498,86.806824 78.609360,86.722572 
	C79.736946,86.831955 80.431572,86.942734 81.481400,87.069656 
z"/>
<path fill="#4B3622" opacity="1.000000" stroke="none" 
	d="
M72.912590,82.782333 
	C73.033051,83.059067 73.119408,83.510269 73.057480,83.731293 
	C72.636398,83.753464 72.277237,83.554604 71.918083,83.355743 
	C72.209435,83.072357 72.500778,82.788979 72.912590,82.782333 
z"/>
<path fill="#F2BF96" opacity="1.000000" stroke="none" 
	d="
M73.897461,79.155212 
	C73.932076,79.317497 73.736404,79.624878 73.290901,80.055252 
	C73.249779,79.885605 73.458473,79.592957 73.897461,79.155212 
z"/>
<path fill="#F8D9C0" opacity="1.000000" stroke="none" 
	d="
M134.563446,117.510345 
	C134.045090,118.631302 133.534637,119.451477 133.000580,120.658844 
	C132.534927,121.108307 132.092880,121.170593 131.325043,120.885979 
	C130.990585,120.047508 130.981888,119.555931 131.211441,118.795677 
	C130.844055,117.697182 130.356995,116.286598 129.612930,116.134659 
	C125.677017,115.330971 121.676430,114.843948 117.769272,114.211075 
	C117.840279,114.174995 117.888565,114.326797 117.757797,114.064514 
	C117.320084,113.568123 117.013138,113.334007 116.770020,113.125092 
	C116.833847,113.150299 116.762207,113.267365 116.793030,113.036957 
	C116.506538,112.633797 116.189232,112.461037 115.617966,112.127426 
	C114.917534,111.307610 114.471046,110.648659 113.989044,109.660164 
	C114.297241,107.900345 114.640961,106.470055 115.076462,105.395119 
	C118.231789,106.387794 121.295326,107.025124 124.641891,107.718323 
	C125.278915,107.647018 125.632912,107.519859 126.373245,107.278519 
	C127.828529,107.069221 128.897491,106.974098 130.110718,107.219086 
	C132.143936,110.140541 134.032898,112.721893 135.921844,115.303246 
	C135.471680,115.938690 135.021515,116.574135 134.563446,117.510345 
z"/>
<path fill="#EAAC78" opacity="1.000000" stroke="none" 
	d="
M110.275497,106.911339 
	C110.041710,106.931679 109.807930,106.952019 109.001427,106.703186 
	C107.621674,104.282974 106.814629,102.131950 105.686661,99.828362 
	C99.230095,97.540939 99.707260,103.046562 97.703705,105.976120 
	C96.580605,105.281578 95.764946,104.652061 94.949280,104.022552 
	C94.949280,104.022552 94.999695,103.999847 95.121765,103.753769 
	C95.500587,102.978142 95.757332,102.448593 96.373230,101.750793 
	C96.859131,99.729332 96.985886,97.876122 97.518600,96.025681 
	C101.878464,96.009315 105.832367,95.990189 109.869888,96.423134 
	C110.060829,100.220581 110.168159,103.565964 110.275497,106.911339 
z"/>
<path fill="#473F37" opacity="1.000000" stroke="none" 
	d="
M110.482010,107.161682 
	C110.168159,103.565964 110.060829,100.220581 109.921112,96.202225 
	C111.246216,95.364311 112.603714,95.199371 113.899277,95.044754 
	C113.837341,95.055077 113.846817,95.180283 113.869568,95.447845 
	C113.925285,96.071991 113.958237,96.428581 113.783958,96.944061 
	C113.411102,97.400322 113.245483,97.697708 112.822571,98.269028 
	C112.493477,100.727989 110.424492,103.796654 114.969986,104.218636 
	C114.984558,104.674660 114.984619,104.857216 114.984673,105.039772 
	C114.640961,106.470055 114.297241,107.900345 113.724380,109.868469 
	C113.233330,110.769875 112.971436,111.133438 112.709549,111.496994 
	C112.035873,110.135338 111.362198,108.773682 110.482010,107.161682 
z"/>
<path fill="#433D39" opacity="1.000000" stroke="none" 
	d="
M112.793045,111.815430 
	C112.971436,111.133438 113.233330,110.769875 113.759903,110.198013 
	C114.471046,110.648659 114.917534,111.307610 115.692703,112.348267 
	C116.196571,113.008026 116.443512,113.187157 116.762207,113.267365 
	C116.762207,113.267365 116.833847,113.150299 116.876648,113.407227 
	C117.242485,113.885040 117.565521,114.105919 117.888565,114.326797 
	C117.888565,114.326797 117.840279,114.174995 117.960152,114.493912 
	C119.736549,116.212524 121.393074,117.612228 122.666946,119.131325 
	C121.229843,119.216255 120.175392,119.181793 119.120934,119.147331 
	C117.039474,116.809509 114.958015,114.471687 112.793045,111.815430 
z"/>
<path fill="#F8CAA5" opacity="1.000000" stroke="none" 
	d="
M119.351395,119.407043 
	C120.175392,119.181793 121.229843,119.216255 123.106697,119.155380 
	C126.277122,119.061478 128.625153,119.062920 130.973190,119.064362 
	C130.981888,119.555931 130.990585,120.047508 130.990967,120.911880 
	C127.182396,120.745377 123.382126,120.206062 119.351395,119.407043 
z"/>
<path fill="#FACFAC" opacity="1.000000" stroke="none" 
	d="
M106.007591,99.980919 
	C106.814629,102.131950 107.621674,104.282974 108.649780,106.718781 
	C109.223473,108.748756 109.576103,110.493950 109.706337,112.624557 
	C109.296509,113.020554 109.109085,113.031143 108.921654,113.041733 
	C108.494919,113.032585 108.068192,113.023438 107.317657,112.737213 
	C106.989464,112.286507 106.985069,112.112877 106.963730,111.530319 
	C106.633728,107.407898 106.320663,103.694412 106.007591,99.980919 
z"/>
<path fill="#F8CAA5" opacity="1.000000" stroke="none" 
	d="
M108.968475,113.323456 
	C109.109085,113.031143 109.296509,113.020554 109.765808,113.001343 
	C110.352242,113.463112 110.656799,113.933510 111.003647,114.691544 
	C110.856461,114.985680 110.666985,114.992195 110.192184,115.005005 
	C109.609680,114.542587 109.312485,114.073891 108.968475,113.323456 
z"/>
<path fill="#E3A772" opacity="1.000000" stroke="none" 
	d="
M134.452148,93.367844 
	C135.843750,93.093636 136.989319,93.077682 138.400635,92.979721 
	C139.060730,93.721474 139.455124,94.545235 140.020325,95.670074 
	C140.541397,98.720367 140.891647,101.469574 140.907135,104.431351 
	C138.346909,102.781837 136.121460,100.919777 133.572495,98.901093 
	C129.532532,97.850494 125.816071,96.956512 121.755295,96.042526 
	C119.578056,95.735054 117.745148,95.447601 116.124344,94.909462 
	C117.524849,94.108391 118.713234,93.558006 119.901619,93.007629 
	C124.669792,93.213776 129.437958,93.419930 134.452148,93.367844 
z"/>
<path fill="#EEC6A7" opacity="1.000000" stroke="none" 
	d="
M136.218170,115.214035 
	C134.032898,112.721893 132.143936,110.140541 130.153412,106.880386 
	C131.053787,105.344414 132.055756,104.487236 133.229218,103.949173 
	C135.711365,105.821671 138.022034,107.375053 140.332687,108.928436 
	C139.059952,110.993896 137.787231,113.059364 136.218170,115.214035 
z"/>
<path fill="#C99568" opacity="1.000000" stroke="none" 
	d="
M140.533875,108.665756 
	C138.022034,107.375053 135.711365,105.821671 133.343292,103.637375 
	C133.489243,101.690208 133.692627,100.373962 133.895996,99.057716 
	C136.121460,100.919777 138.346909,102.781837 140.836990,104.860336 
	C140.979431,106.185539 140.857239,107.294304 140.533875,108.665756 
z"/>
<path fill="#EAAC78" opacity="1.000000" stroke="none" 
	d="
M67.582993,92.145882 
	C72.005753,91.547058 76.118210,91.108047 80.237923,90.753189 
	C81.977943,90.603310 83.733231,90.630684 85.760139,91.180557 
	C86.014221,92.245392 85.989754,92.707138 85.525192,93.116577 
	C82.444786,93.882248 78.863304,90.658241 76.752289,95.059052 
	C75.243996,96.124649 74.012909,97.071159 72.626122,98.009857 
	C72.470413,98.002037 72.158676,97.996292 72.024155,97.768646 
	C71.281052,97.994110 70.672470,98.447220 69.841080,99.157578 
	C68.991577,99.650871 68.364883,99.886909 67.738197,100.122955 
	C65.695396,97.640785 65.049858,95.075569 67.582993,92.145882 
z"/>
<path fill="#F2CAAC" opacity="1.000000" stroke="none" 
	d="
M78.435303,103.768646 
	C79.367546,109.226517 76.062469,110.733635 71.165146,111.207458 
	C70.761169,111.282074 70.844742,111.184059 70.710922,110.959061 
	C70.205872,110.533699 69.834648,110.333336 69.463417,110.132980 
	C68.867821,109.331413 68.272224,108.529846 67.993973,107.366241 
	C70.226006,104.909393 72.140701,102.814583 74.367310,100.846481 
	C75.931252,101.905006 77.183273,102.836830 78.435303,103.768646 
z"/>
<path fill="#ECB88E" opacity="1.000000" stroke="none" 
	d="
M74.055389,100.719780 
	C72.140701,102.814583 70.226006,104.909393 67.935562,107.066132 
	C67.538681,104.998734 67.517563,102.869408 67.617317,100.431519 
	C68.364883,99.886909 68.991577,99.650871 70.154991,99.176361 
	C71.180710,98.624023 71.669693,98.310158 72.158676,97.996292 
	C72.158676,97.996292 72.470413,98.002037 72.721855,98.332260 
	C73.038383,98.876816 73.103477,99.091156 73.272369,99.494934 
	C73.602577,100.029510 73.828987,100.374641 74.055389,100.719780 
z"/>
<path fill="#F0D6C1" opacity="1.000000" stroke="none" 
	d="
M69.633102,110.413818 
	C69.834648,110.333336 70.205872,110.533699 70.765312,110.993546 
	C70.569946,111.066910 70.186371,110.880791 69.633102,110.413818 
z"/>
<path fill="#8B3C2C" opacity="1.000000" stroke="none" 
	d="
M110.877777,142.652832 
	C111.032249,143.002289 111.013039,143.498062 111.002045,143.745911 
	C109.267044,144.086334 107.543037,144.178925 105.223282,144.051315 
	C101.732338,143.659225 98.837151,143.487335 95.941963,143.315430 
	C94.346916,142.455795 92.751862,141.596161 90.995972,140.426331 
	C97.661179,139.057053 104.428436,138.532562 110.877777,142.652832 
z"/>
<path fill="#968B82" opacity="1.000000" stroke="none" 
	d="
M111.850029,134.542084 
	C109.449387,134.658539 107.048752,134.774979 104.175491,134.504959 
	C103.772453,133.778091 103.842041,133.437714 104.354965,133.018219 
	C107.176872,133.006165 109.555458,133.073212 111.924454,133.374023 
	C111.860703,133.916946 111.839081,134.228378 111.850029,134.542084 
z"/>
<path fill="#EEC6A7" opacity="1.000000" stroke="none" 
	d="
M103.911629,133.097321 
	C103.842041,133.437714 103.772453,133.778091 103.737686,134.376984 
	C100.998917,134.336792 98.225334,134.038132 95.353806,133.377808 
	C96.566124,132.984421 97.876373,132.952682 99.974960,132.975525 
	C101.839119,133.005508 102.914963,132.980896 103.946777,132.977936 
	C103.902763,132.999588 103.911629,133.097321 103.911629,133.097321 
z"/>
<path fill="#624329" opacity="1.000000" stroke="none" 
	d="
M111.934036,133.140289 
	C109.555458,133.073212 107.176872,133.006165 104.354965,133.018219 
	C103.911629,133.097321 103.902763,132.999588 104.003349,132.787933 
	C104.103935,132.576294 104.208839,132.194031 104.208839,132.194031 
	C107.918938,132.191956 111.629036,132.189880 115.808624,132.302307 
	C115.963356,132.816940 115.648582,133.217072 114.835052,133.504562 
	C113.535545,133.308029 112.734787,133.224152 111.934036,133.140289 
z"/>
<path fill="#716964" opacity="1.000000" stroke="none" 
	d="
M111.924454,133.374023 
	C112.734787,133.224152 113.535545,133.308029 114.581055,133.570587 
	C114.042770,134.047852 113.259720,134.346436 112.163345,134.593536 
	C111.839081,134.228378 111.860703,133.916946 111.924454,133.374023 
z"/>
<path fill="#D57758" opacity="1.000000" stroke="none" 
	d="
M96.179375,143.587036 
	C98.837151,143.487335 101.732338,143.659225 104.799667,144.138626 
	C102.120132,144.250290 99.268463,144.054443 96.179375,143.587036 
z"/>
<path fill="#C99568" opacity="1.000000" stroke="none" 
	d="
M87.406372,118.135178 
	C86.815948,117.474838 86.554855,116.863770 86.200638,115.842392 
	C86.402725,115.257385 86.697922,115.082687 87.225761,114.901993 
	C87.458397,114.895988 87.919945,114.955887 88.298927,114.975426 
	C89.430786,114.970848 90.183670,114.946732 91.314972,114.935493 
	C92.197815,114.990753 92.702232,115.033142 93.120232,115.387253 
	C93.010551,116.125900 92.987282,116.552826 92.964020,116.979744 
	C92.964020,116.979744 93.007156,116.966766 92.995560,116.946640 
	C91.234543,117.345833 89.485123,117.765144 87.406372,118.135178 
z"/>
<path fill="#C99568" opacity="1.000000" stroke="none" 
	d="
M85.418724,120.792969 
	C85.547150,119.970398 85.991806,119.082512 86.758469,118.123291 
	C86.631966,118.943848 86.183464,119.835754 85.418724,120.792969 
z"/>
<path fill="#936941" opacity="1.000000" stroke="none" 
	d="
M103.786842,132.137451 
	C104.208839,132.194031 104.103935,132.576294 104.047363,132.766296 
	C102.914963,132.980896 101.839119,133.005508 100.368034,132.938324 
	C99.972786,132.846558 99.973907,132.435577 99.979782,132.230484 
	C101.112045,132.043884 102.238449,132.062363 103.786842,132.137451 
z"/>
<path fill="#FEDABF" opacity="1.000000" stroke="none" 
	d="
M96.411079,119.418411 
	C97.088181,118.239532 97.778862,117.350441 99.071022,116.172691 
	C101.769577,115.930550 103.866653,115.977058 105.963722,116.023575 
	C106.286835,117.745361 106.609955,119.467148 106.961395,121.586151 
	C106.989716,121.983368 106.998947,121.999924 106.560333,121.965485 
	C102.960678,121.369881 99.799637,120.808716 96.638588,120.247551 
	C96.567276,120.067772 96.495972,119.887993 96.411079,119.418411 
z"/>
<path fill="#F8CAA5" opacity="1.000000" stroke="none" 
	d="
M105.989990,115.689850 
	C103.866653,115.977058 101.769577,115.930550 99.308022,115.921143 
	C98.963135,112.348053 97.271881,113.446342 95.028915,114.869431 
	C94.538719,115.024895 94.138222,115.044296 94.112144,114.800018 
	C94.086067,114.555748 94.064514,114.065987 94.238884,113.789719 
	C95.589661,111.974129 96.766060,110.434799 97.970795,109.228859 
	C100.992966,110.354584 103.986824,111.146912 106.980675,111.939240 
	C106.985069,112.112877 106.989464,112.286507 106.997940,112.720398 
	C106.673439,113.772484 106.344849,114.564301 105.989990,115.689850 
z"/>
<path fill="#8C603A" opacity="1.000000" stroke="none" 
	d="
M109.403809,120.452011 
	C109.481445,120.390968 109.499191,120.625084 109.499191,120.625084 
	C109.499191,120.625084 109.326180,120.513054 109.403809,120.452011 
z"/>
<path fill="#EAAF7C" opacity="1.000000" stroke="none" 
	d="
M96.690582,120.615242 
	C99.799637,120.808716 102.960678,121.369881 106.553375,121.960396 
	C103.193031,125.497986 99.849899,124.439934 96.690582,120.615242 
z"/>
<path fill="#FAD0B0" opacity="1.000000" stroke="none" 
	d="
M94.138222,115.044296 
	C94.138222,115.044296 94.538719,115.024895 94.737816,115.008469 
	C94.489006,115.633102 94.041092,116.274170 93.278603,116.947495 
	C92.987282,116.552826 93.010551,116.125900 93.352722,115.384369 
	C93.671631,115.069748 94.138222,115.044296 94.138222,115.044296 
z"/>
<path fill="#352D27" opacity="1.000000" stroke="none" 
	d="
M74.367310,100.846481 
	C73.828987,100.374641 73.602577,100.029510 73.628769,99.420311 
	C76.464676,98.896156 78.362030,98.123886 77.029503,94.939972 
	C78.863304,90.658241 82.444786,93.882248 85.717499,93.387772 
	C88.581276,96.495003 90.812653,99.278717 93.044022,102.062447 
	C92.513741,101.284027 91.983467,100.505600 90.865608,98.864616 
	C89.159485,108.449509 83.492134,103.750114 78.828606,103.747253 
	C77.183273,102.836830 75.931252,101.905006 74.367310,100.846481 
z"/>
<path fill="#C28F5F" opacity="1.000000" stroke="none" 
	d="
M93.109802,102.348312 
	C90.812653,99.278717 88.581276,96.495003 86.157593,93.440086 
	C85.989754,92.707138 86.014221,92.245392 86.043198,91.438293 
	C87.563278,91.175713 89.078873,91.258476 90.799149,91.085159 
	C91.003845,90.829079 91.471603,90.967102 91.985565,91.147064 
	C93.368416,91.879044 94.237305,92.431061 95.106201,92.983078 
	C95.106201,92.983078 95.006424,92.993370 95.132858,93.335709 
	C95.510887,96.425049 95.762482,99.172050 96.014069,101.919052 
	C95.757332,102.448593 95.500587,102.978142 95.097954,103.765656 
	C94.359901,103.560478 93.767731,103.097328 93.109802,102.348312 
z"/>
<path fill="#C99568" opacity="1.000000" stroke="none" 
	d="
M97.942459,108.895462 
	C96.766060,110.434799 95.589661,111.974129 94.003616,113.638000 
	C93.358856,113.478416 93.123726,113.194298 92.909363,112.645119 
	C92.661629,111.952118 92.393112,111.524185 92.086037,110.811386 
	C92.035477,110.335236 92.023468,110.143967 92.011459,109.952690 
	C92.865776,108.167320 93.720093,106.381950 94.761841,104.309570 
	C95.764946,104.652061 96.580605,105.281578 97.689995,106.332413 
	C97.969971,107.467644 97.956215,108.181557 97.942459,108.895462 
z"/>
<path fill="#473F37" opacity="1.000000" stroke="none" 
	d="
M87.919945,114.955887 
	C87.919945,114.955887 87.458397,114.895988 87.123581,114.487198 
	C86.710541,113.804543 86.632324,113.530678 86.554108,113.256821 
	C87.512451,112.541862 88.470795,111.826904 89.706787,111.373650 
	C89.998405,112.123062 90.012367,112.610756 89.866829,113.337067 
	C89.111542,114.035744 88.515747,114.495819 87.919945,114.955887 
z"/>
<path fill="#504840" opacity="1.000000" stroke="none" 
	d="
M86.226677,113.294228 
	C86.632324,113.530678 86.710541,113.804543 86.890945,114.493195 
	C86.697922,115.082687 86.402725,115.257385 85.940094,115.627518 
	C85.359802,115.855301 84.946945,115.887657 84.226570,115.870613 
	C83.919052,115.821220 83.909042,115.330925 83.939949,115.087791 
	C84.613647,114.340317 85.256447,113.835976 86.226677,113.294228 
z"/>
<path fill="#3C3732" opacity="1.000000" stroke="none" 
	d="
M90.026321,113.098457 
	C90.012367,112.610756 89.998405,112.123062 89.988174,111.269363 
	C89.991905,110.903358 90.162834,110.580399 90.614365,110.795731 
	C91.272446,111.209152 91.479004,111.407242 91.544113,111.823212 
	C91.221695,112.333626 91.040710,112.626160 90.896683,112.933586 
	C90.933640,112.948479 90.924118,112.869362 90.698959,112.923874 
	C90.473808,112.978386 90.026321,113.098457 90.026321,113.098457 
z"/>
<path fill="#3C3732" opacity="1.000000" stroke="none" 
	d="
M91.731712,109.896881 
	C92.023468,110.143967 92.035477,110.335236 91.997986,110.957214 
	C91.948494,111.387924 91.685555,111.605339 91.685555,111.605339 
	C91.479004,111.407242 91.272446,111.209152 90.769577,110.699341 
	C90.799492,110.205444 91.125725,110.023262 91.731712,109.896881 
z"/>
<path fill="#EDB586" opacity="1.000000" stroke="none" 
	d="
M113.961205,95.034431 
	C112.603714,95.199371 111.246216,95.364311 109.837494,95.750153 
	C105.832367,95.990189 101.878464,96.009315 97.463699,95.727844 
	C96.996170,95.225700 96.989517,95.024147 97.179123,94.702858 
	C97.671707,94.478127 97.927109,94.310692 98.102737,94.088394 
	C98.063881,94.095963 98.108803,94.161148 98.472366,94.190277 
	C99.544449,94.042862 100.252968,93.866318 101.242599,93.729317 
	C101.696465,93.691376 101.869202,93.613899 102.367218,93.542671 
	C103.121178,93.487541 103.549843,93.426170 104.299393,93.522842 
	C106.011787,93.253647 107.403297,92.826401 108.794800,92.399155 
	C108.863800,91.555763 108.932793,90.712379 109.011703,89.446320 
	C111.181885,89.214645 113.342148,89.405647 115.713257,90.084625 
	C115.269806,92.059883 114.615501,93.547157 113.961205,95.034431 
z"/>
<path fill="#D4A67F" opacity="1.000000" stroke="none" 
	d="
M113.899277,95.044754 
	C114.615501,93.547157 115.269806,92.059883 115.985191,90.304062 
	C117.307129,90.793419 118.567978,91.551323 119.865219,92.658424 
	C118.713234,93.558006 117.524849,94.108391 115.781296,94.904007 
	C114.766350,95.159584 114.306587,95.169930 113.846817,95.180283 
	C113.846817,95.180283 113.837341,95.055077 113.899277,95.044754 
z"/>
<path fill="#322C26" opacity="1.000000" stroke="none" 
	d="
M96.982864,94.822601 
	C96.989517,95.024147 96.996170,95.225700 97.057739,95.725082 
	C96.985886,97.876122 96.859131,99.729332 96.373230,101.750793 
	C95.762482,99.172050 95.510887,96.425049 95.128250,93.285767 
	C95.713585,92.849388 96.429970,92.805283 97.592072,93.132668 
	C98.061447,93.723152 98.085121,93.942146 98.108803,94.161148 
	C98.108803,94.161148 98.063881,94.095963 97.867920,94.139992 
	C97.362923,94.311287 97.133217,94.524147 96.982864,94.822601 
z"/>
<path fill="#504840" opacity="1.000000" stroke="none" 
	d="
M108.421906,92.312630 
	C107.403297,92.826401 106.011787,93.253647 104.437256,93.345337 
	C104.512527,92.653076 104.770844,92.296371 105.029160,91.939667 
	C106.035774,92.035149 107.042389,92.130630 108.421906,92.312630 
z"/>
<path fill="#322C26" opacity="1.000000" stroke="none" 
	d="
M95.356247,92.669594 
	C94.237305,92.431061 93.368416,91.879044 92.228882,91.163002 
	C93.174263,91.451355 94.390282,91.903732 95.356247,92.669594 
z"/>
<path fill="#3C3732" opacity="1.000000" stroke="none" 
	d="
M98.472366,94.190277 
	C98.085121,93.942146 98.061447,93.723152 98.000336,93.175858 
	C98.763718,92.568649 99.564545,92.289742 100.686348,92.258705 
	C101.007332,92.506577 101.012718,92.920563 100.996964,93.112671 
	C100.981216,93.304779 100.961487,93.689774 100.961487,93.689774 
	C100.252968,93.866318 99.544449,94.042862 98.472366,94.190277 
z"/>
<path fill="#221A14" opacity="1.000000" stroke="none" 
	d="
M101.012718,92.920563 
	C101.012718,92.920563 101.007332,92.506577 101.014542,92.299698 
	C102.092079,91.982750 103.162422,91.872688 104.630959,91.851151 
	C104.770844,92.296371 104.512527,92.653076 104.116364,93.187286 
	C103.549843,93.426170 103.121178,93.487541 102.236877,93.382980 
	C101.542038,93.074280 101.285858,92.975449 101.012718,92.920563 
z"/>
<path fill="#EAAC78" opacity="1.000000" stroke="none" 
	d="
M89.979660,89.788757 
	C89.858620,89.795654 89.574043,89.607964 89.148445,89.205017 
	C89.276993,89.191231 89.546562,89.392700 89.979660,89.788757 
z"/>
<path fill="#3A322A" opacity="1.000000" stroke="none" 
	d="
M133.572510,98.901093 
	C133.692627,100.373962 133.489243,101.690208 133.171783,103.318260 
	C132.055756,104.487236 131.053787,105.344414 130.009140,106.540283 
	C128.897491,106.974098 127.828529,107.069221 126.090271,107.213196 
	C125.066940,107.395508 124.712906,107.528976 124.358871,107.662460 
	C121.295326,107.025124 118.231789,106.387794 115.076462,105.395119 
	C114.984619,104.857216 114.984558,104.674660 115.042496,103.871078 
	C116.294830,101.904709 117.446335,100.517899 118.696518,99.226616 
	C119.772438,98.115341 120.960907,97.113029 122.099609,96.062538 
	C125.816071,96.956512 129.532532,97.850494 133.572510,98.901093 
z"/>
<path fill="#FEF3DB" opacity="1.000000" stroke="none" 
	d="
M131.211441,118.795677 
	C128.625153,119.062920 126.277122,119.061478 123.489342,119.035988 
	C121.393074,117.612228 119.736549,116.212524 117.889145,114.529984 
	C121.676430,114.843948 125.677017,115.330971 129.612930,116.134659 
	C130.356995,116.286598 130.844055,117.697182 131.211441,118.795677 
z"/>
<path fill="#FEF3DB" opacity="1.000000" stroke="none" 
	d="
M116.793030,113.036957 
	C116.443512,113.187157 116.196571,113.008026 115.946655,112.509125 
	C116.189232,112.461037 116.506538,112.633797 116.793030,113.036957 
z"/>
<path fill="#EEC6A7" opacity="1.000000" stroke="none" 
	d="
M124.641891,107.718315 
	C124.712906,107.528976 125.066940,107.395508 125.703949,107.327370 
	C125.632912,107.519859 125.278915,107.647018 124.641891,107.718315 
z"/>
<path fill="#FEF3DB" opacity="1.000000" stroke="none" 
	d="
M117.757797,114.064514 
	C117.565521,114.105919 117.242485,113.885040 116.812820,113.382019 
	C117.013138,113.334007 117.320084,113.568123 117.757797,114.064514 
z"/>
<path fill="#FED8BD" opacity="1.000000" stroke="none" 
	d="
M97.970787,109.228851 
	C97.956215,108.181557 97.969971,107.467644 97.997437,106.397446 
	C99.707260,103.046562 99.230095,97.540939 105.686661,99.828362 
	C106.320663,103.694412 106.633728,107.407898 106.963730,111.530319 
	C103.986824,111.146912 100.992966,110.354584 97.970787,109.228851 
z"/>
<path fill="#B07D50" opacity="1.000000" stroke="none" 
	d="
M121.755295,96.042526 
	C120.960907,97.113029 119.772438,98.115341 118.696518,99.226616 
	C117.446335,100.517899 116.294830,101.904709 115.027992,103.597618 
	C110.424492,103.796654 112.493477,100.727989 113.031433,98.117134 
	C113.662117,97.389259 113.826653,97.087212 113.991188,96.785172 
	C113.958237,96.428581 113.925285,96.071991 113.869568,95.447845 
	C114.306587,95.169930 114.766350,95.159584 115.569176,95.154694 
	C117.745148,95.447601 119.578056,95.735054 121.755295,96.042526 
z"/>
<path fill="#E3A772" opacity="1.000000" stroke="none" 
	d="
M113.783958,96.944061 
	C113.826653,97.087212 113.662117,97.389259 113.288719,97.843193 
	C113.245483,97.697708 113.411102,97.400322 113.783958,96.944061 
z"/>
<path fill="#968B82" opacity="1.000000" stroke="none" 
	d="
M76.752289,95.059052 
	C78.362030,98.123886 76.464676,98.896156 73.524963,99.230873 
	C73.103477,99.091156 73.038383,98.876816 72.877563,98.340073 
	C74.012909,97.071159 75.243996,96.124649 76.752289,95.059052 
z"/>
<path fill="#624329" opacity="1.000000" stroke="none" 
	d="
M72.024155,97.768646 
	C71.669693,98.310158 71.180710,98.624023 70.377808,98.919113 
	C70.672470,98.447220 71.281052,97.994110 72.024155,97.768646 
z"/>
<path fill="#EAAF7C" opacity="1.000000" stroke="none" 
	d="
M92.888596,112.910187 
	C93.123726,113.194298 93.358856,113.478416 93.829254,113.914261 
	C94.064514,114.065987 94.086067,114.555748 94.112144,114.800018 
	C94.138222,115.044296 93.671631,115.069748 93.439140,115.072639 
	C92.702232,115.033142 92.197815,114.990753 91.335526,114.594734 
	C90.959816,113.783852 90.941963,113.326607 90.924118,112.869362 
	C90.924118,112.869362 90.933640,112.948479 91.235336,112.957687 
	C91.987549,112.947990 92.438072,112.929085 92.888596,112.910187 
z"/>
<path fill="#F2BF96" opacity="1.000000" stroke="none" 
	d="
M90.698959,112.923874 
	C90.941963,113.326607 90.959816,113.783852 90.957108,114.581856 
	C90.183670,114.946732 89.430786,114.970848 88.298927,114.975433 
	C88.515747,114.495819 89.111542,114.035744 89.866829,113.337067 
	C90.026321,113.098457 90.473808,112.978386 90.698959,112.923874 
z"/>
<path fill="#F2BF96" opacity="1.000000" stroke="none" 
	d="
M92.909370,112.645111 
	C92.438072,112.929085 91.987549,112.947990 91.198380,112.942795 
	C91.040710,112.626160 91.221695,112.333626 91.544113,111.823212 
	C91.685555,111.605339 91.948494,111.387924 92.036545,111.242096 
	C92.393112,111.524185 92.661629,111.952118 92.909370,112.645111 
z"/>
<path fill="#3C3732" opacity="1.000000" stroke="none" 
	d="
M97.179123,94.702858 
	C97.133217,94.524147 97.362923,94.311287 97.906776,94.132416 
	C97.927109,94.310692 97.671707,94.478127 97.179123,94.702858 
z"/>
<path fill="#504840" opacity="1.000000" stroke="none" 
	d="
M100.996964,93.112671 
	C101.285858,92.975449 101.542038,93.074280 101.911591,93.376740 
	C101.869202,93.613899 101.696465,93.691376 101.242599,93.729317 
	C100.961487,93.689774 100.981216,93.304779 100.996964,93.112671 
z"/>
</svg>